<?xml version="1.0" encoding="UTF-8" standalone="no"?>
<!-- Generator: Gravit.io -->
<svg xmlns="http://www.w3.org/2000/svg" xmlns:xlink="http://www.w3.org/1999/xlink" style="isolation:isolate" viewBox="0 0 900 700" width="900pt" height="700pt"><defs><clipPath id="_clipPath_FpbAK2ONCBrpWYwoaJNYlyufybm30d25"><rect width="900" height="700"/></clipPath></defs><g clip-path="url(#_clipPath_FpbAK2ONCBrpWYwoaJNYlyufybm30d25)"><defs><filter id="ZzwRASyF3LHYPMPxZAfQ6q4UxdZVkNIc" x="-200%" y="-200%" width="400%" height="400%" filterUnits="objectBoundingBox" color-interpolation-filters="sRGB"><feGaussianBlur xmlns="http://www.w3.org/2000/svg" in="SourceGraphic" stdDeviation="2.146804531419514"/><feOffset xmlns="http://www.w3.org/2000/svg" dx="0" dy="3" result="pf_100_offsetBlur"/><feFlood xmlns="http://www.w3.org/2000/svg" flood-color="#000000" flood-opacity="0.65"/><feComposite xmlns="http://www.w3.org/2000/svg" in2="pf_100_offsetBlur" operator="in" result="pf_100_dropShadow"/><feBlend xmlns="http://www.w3.org/2000/svg" in="SourceGraphic" in2="pf_100_dropShadow" mode="normal"/></filter></defs><g filter="url(#ZzwRASyF3LHYPMPxZAfQ6q4UxdZVkNIc)"><rect x="17" y="46" width="860" height="557" transform="matrix(1,0,0,1,0,0)" fill="rgb(255,255,255)" vector-effect="non-scaling-stroke" stroke-width="1" stroke="rgb(0,0,0)" stroke-linejoin="miter" stroke-linecap="square" stroke-miterlimit="2"/></g><rect x="165.814" y="194" width="492.683" height="232.5" transform="matrix(1,0,0,1,0,0)" fill="rgb(235,235,235)"/><rect x="165" y="92" width="492.683" height="44" transform="matrix(1,0,0,1,0,0)" fill="rgb(235,235,235)"/><rect x="68.618" y="194" width="61" height="232.5" transform="matrix(1,0,0,1,0,0)" fill="rgb(235,235,235)"/><rect x="166.317" y="476.236" width="492.683" height="65" transform="matrix(1,0,0,1,0,0)" fill="rgb(235,235,235)"/><rect x="686" y="194" width="181.382" height="232.5" transform="matrix(1,0,0,1,0,0)" fill="rgb(235,235,235)"/><text transform="matrix(1,0,0,1,17,40.177)" style="font-family:'Open Sans';font-weight:700;font-size:20px;font-style:normal;fill:#000000;stroke:none;">AnnotatedGEM</text><text transform="matrix(1,0,0,1,165,86.141)" style="font-family:'Open Sans';font-weight:700;font-size:20px;font-style:normal;fill:#000000;stroke:none;">gene index</text><text transform="matrix(0,-1,1,0,61.759,426.5)" style="font-family:'Open Sans';font-weight:700;font-size:20px;font-style:normal;fill:#000000;stroke:none;">sample index</text><text transform="matrix(1,0,0,1,686,188.141)" style="font-family:'Open Sans';font-weight:700;font-size:20px;font-style:normal;fill:#000000;stroke:none;">sample variables</text><text transform="matrix(1,0,0,1,166.317,470.413)" style="font-family:'Open Sans';font-weight:700;font-size:20px;font-style:normal;fill:#000000;stroke:none;">gene variables</text><text transform="matrix(1,0,0,1,166,188.141)" style="font-family:'Open Sans';font-weight:700;font-size:20px;font-style:normal;fill:#000000;stroke:none;">count matricies</text><text transform="matrix(1,0,0,1,742.341,597.141)" style="font-family:'Open Sans';font-weight:400;font-size:20px;font-style:italic;fill:#000000;stroke:none;">xarray.DataSet</text><text transform="matrix(1,0,0,1,165.723,113.377)" style="font-family:'Open Sans';font-weight:400;font-size:20px;font-style:italic;fill:#000000;stroke:none;">xarray coordinate</text><text transform="matrix(1,0,0,1,503.405,420.641)" style="font-family:'Open Sans';font-weight:400;font-size:20px;font-style:italic;fill:#000000;stroke:none;">xarray.DataArray</text><text transform="matrix(1,0,0,1,503.405,130.141)" style="font-family:'Open Sans';font-weight:400;font-size:20px;font-style:italic;fill:#000000;stroke:none;">xarray.DataArray</text><text transform="matrix(0,-1,1,0,123.759,348.277)" style="font-family:'Open Sans';font-weight:400;font-size:20px;font-style:italic;fill:#000000;stroke:none;">xarray.DataArray</text><text transform="matrix(1,0,0,1,166,420.641)" style="font-family:'Open Sans';font-weight:400;font-size:20px;font-style:italic;fill:#000000;stroke:none;">(gene, sample) dimension</text><text transform="matrix(1,0,0,1,166,535.377)" style="font-family:'Open Sans';font-weight:400;font-size:20px;font-style:italic;fill:#000000;stroke:none;">(gene, variable) dimension</text><text transform="matrix(0,-1,1,0,88.995,425.777)" style="font-family:'Open Sans';font-weight:400;font-size:20px;font-style:italic;fill:#000000;stroke:none;">xarray coordinate</text><text transform="matrix(1,0,0,1,713.104,420.641)" style="font-family:'Open Sans';font-weight:400;font-size:20px;font-style:italic;fill:#000000;stroke:none;">xarray.DataArray</text><text transform="matrix(1,0,0,1,504.723,535.377)" style="font-family:'Open Sans';font-weight:400;font-size:20px;font-style:italic;fill:#000000;stroke:none;">xarray.DataArray</text></g></svg>