<svg version="1.1" viewBox="0.0 0.0 570.3884514435696 515.3070866141733" fill="none" stroke="none" stroke-linecap="square" stroke-miterlimit="10" xmlns:xlink="http://www.w3.org/1999/xlink" xmlns="http://www.w3.org/2000/svg"><clipPath id="p.0"><path d="m0 0l570.3884 0l0 515.30707l-570.3884 0l0 -515.30707z" clip-rule="nonzero"/></clipPath><g clip-path="url(#p.0)"><path fill="#000000" fill-opacity="0.0" d="m0 0l570.3884 0l0 515.30707l-570.3884 0z" fill-rule="evenodd"/><path fill="#cfe2f3" d="m13.860892 329.57285l0 0c0 -18.462036 14.966445 -33.428497 33.42849 -33.428497l473.30054 0c8.865784 0 17.368408 3.5219421 23.637512 9.790985c6.269043 6.2690735 9.790955 14.7717285 9.790955 23.637512l0 133.70996c0 18.462036 -14.966431 33.428467 -33.428467 33.428467l-473.30054 0c-18.462046 0 -33.42849 -14.966431 -33.42849 -33.428467z" fill-rule="evenodd"/><path fill="#000000" d="m224.47516 328.51147l2.625 -0.25q0.234375 1.3125 0.953125 1.9375q0.734375 0.609375 1.96875 0.609375q1.296875 0 1.953125 -0.546875q0.671875 -0.546875 0.671875 -1.28125q0 -0.484375 -0.28125 -0.8125q-0.28125 -0.328125 -0.96875 -0.578125q-0.484375 -0.15625 -2.171875 -0.578125q-2.15625 -0.546875 -3.03125 -1.328125q-1.234375 -1.09375 -1.234375 -2.6875q0 -1.015625 0.578125 -1.90625q0.578125 -0.890625 1.65625 -1.34375q1.09375 -0.46875 2.640625 -0.46875q2.515625 0 3.78125 1.109375q1.28125 1.09375 1.34375 2.9375l-2.703125 0.109375q-0.171875 -1.03125 -0.75 -1.46875q-0.5625 -0.453125 -1.703125 -0.453125q-1.171875 0 -1.84375 0.46875q-0.421875 0.3125 -0.421875 0.84375q0 0.46875 0.40625 0.796875q0.5 0.4375 2.46875 0.90625q1.96875 0.453125 2.90625 0.953125q0.953125 0.5 1.484375 1.359375q0.53125 0.859375 0.53125 2.125q0 1.15625 -0.640625 2.15625q-0.640625 1.0 -1.8125 1.484375q-1.15625 0.484375 -2.890625 0.484375q-2.53125 0 -3.890625 -1.171875q-1.359375 -1.171875 -1.625 -3.40625zm15.021698 -2.375l-2.328125 -0.421875q0.40625 -1.40625 1.359375 -2.078125q0.953125 -0.671875 2.84375 -0.671875q1.703125 0 2.546875 0.40625q0.84375 0.40625 1.171875 1.03125q0.34375 0.625 0.34375 2.28125l-0.015625 3.0q0 1.265625 0.109375 1.875q0.125 0.609375 0.46875 1.296875l-2.53125 0q-0.109375 -0.25 -0.25 -0.75q-0.0625 -0.234375 -0.09375 -0.3125q-0.65625 0.640625 -1.40625 0.96875q-0.734375 0.3125 -1.59375 0.3125q-1.484375 0 -2.34375 -0.8125q-0.859375 -0.8125 -0.859375 -2.046875q0 -0.828125 0.390625 -1.46875q0.390625 -0.640625 1.09375 -0.96875q0.703125 -0.34375 2.03125 -0.609375q1.796875 -0.328125 2.484375 -0.625l0 -0.25q0 -0.75 -0.359375 -1.0625q-0.359375 -0.3125 -1.375 -0.3125q-0.6875 0 -1.078125 0.28125q-0.375 0.265625 -0.609375 0.9375zm3.421875 2.078125q-0.484375 0.15625 -1.5625 0.390625q-1.0625 0.21875 -1.390625 0.4375q-0.5 0.359375 -0.5 0.90625q0 0.53125 0.40625 0.9375q0.40625 0.390625 1.015625 0.390625q0.703125 0 1.328125 -0.46875q0.46875 -0.34375 0.609375 -0.84375q0.09375 -0.328125 0.09375 -1.25l0 -0.5zm4.844467 -5.03125l2.359375 0l0 1.3125q1.265625 -1.53125 3.015625 -1.53125q0.9375 0 1.609375 0.390625q0.6875 0.375 1.125 1.140625q0.64060974 -0.765625 1.3749847 -1.140625q0.75 -0.390625 1.578125 -0.390625q1.0625 0 1.796875 0.4375q0.75 0.421875 1.109375 1.265625q0.265625 0.625 0.265625 2.0l0 6.1875l-2.5625 0l0 -5.53125q0 -1.4375 -0.265625 -1.859375q-0.34375 -0.546875 -1.09375 -0.546875q-0.53125 0 -1.015625 0.328125q-0.46875 0.328125 -0.671875 0.96875q-0.203125 0.625 -0.203125 2.0l0 4.640625l-2.5624847 0l0 -5.296875q0 -1.421875 -0.140625 -1.828125q-0.140625 -0.40625 -0.421875 -0.609375q-0.28125 -0.203125 -0.78125 -0.203125q-0.59375 0 -1.0625 0.328125q-0.46875 0.3125 -0.6875 0.921875q-0.203125 0.59375 -0.203125 1.984375l0 4.703125l-2.5625 0l0 -9.671875zm16.713394 0l2.390625 0l0 1.421875q0.46875 -0.734375 1.25 -1.1875q0.796875 -0.453125 1.765625 -0.453125q1.6875 0 2.859375 1.328125q1.171875 1.3125 1.171875 3.671875q0 2.421875 -1.1875 3.765625q-1.1875 1.34375 -2.859375 1.34375q-0.8125 0 -1.46875 -0.3125q-0.640625 -0.328125 -1.359375 -1.09375l0 4.875l-2.5625 0l0 -13.359375zm2.53125 4.671875q0 1.625 0.640625 2.40625q0.65625 0.78125 1.578125 0.78125q0.90625 0 1.484375 -0.71875q0.59375 -0.71875 0.59375 -2.34375q0 -1.515625 -0.609375 -2.25q-0.609375 -0.75 -1.515625 -0.75q-0.9375 0 -1.5625 0.734375q-0.609375 0.71875 -0.609375 2.140625zm8.942841 5.0l0 -13.359375l2.5625 0l0 13.359375l-2.5625 0zm10.777069 -3.078125l2.546875 0.421875q-0.484375 1.40625 -1.546875 2.140625q-1.0625 0.734375 -2.65625 0.734375q-2.515625 0 -3.734375 -1.65625q-0.953125 -1.3125 -0.953125 -3.328125q0 -2.40625 1.25 -3.765625q1.265625 -1.359375 3.1875 -1.359375q2.15625 0 3.40625 1.421875q1.25 1.421875 1.1875 4.375l-6.40625 0q0.03125 1.140625 0.609375 1.78125q0.59375 0.625 1.484375 0.625q0.59375 0 1.0 -0.328125q0.421875 -0.328125 0.625 -1.0625zm0.15625 -2.59375q-0.03125 -1.109375 -0.578125 -1.6875q-0.546875 -0.578125 -1.328125 -0.578125q-0.84375 0 -1.390625 0.609375q-0.546875 0.609375 -0.53125 1.65625l3.828125 0zm9.746521 5.671875l0 -13.359375l2.6875 0l0 13.359375l-2.6875 0zm14.042664 0l-2.5625 0l0 -4.9375q0 -1.5625 -0.171875 -2.015625q-0.15625 -0.46875 -0.53125 -0.71875q-0.359375 -0.265625 -0.875 -0.265625q-0.671875 0 -1.203125 0.375q-0.53125 0.359375 -0.734375 0.96875q-0.1875 0.59375 -0.1875 2.21875l0 4.375l-2.546875 0l0 -9.671875l2.375 0l0 1.421875q1.265625 -1.640625 3.1875 -1.640625q0.84375 0 1.546875 0.3125q0.703125 0.296875 1.0625 0.78125q0.359375 0.46875 0.5 1.078125q0.140625 0.59375 0.140625 1.703125l0 6.015625zm11.474121 0l-2.390625 0l0 -1.421875q-0.59375 0.828125 -1.40625 1.234375q-0.796875 0.40625 -1.609375 0.40625q-1.671875 0 -2.859375 -1.34375q-1.1875 -1.34375 -1.1875 -3.75q0 -2.453125 1.15625 -3.734375q1.15625 -1.28125 2.921875 -1.28125q1.625 0 2.8125 1.34375l0 -4.8125l2.5625 0l0 13.359375zm-6.84375 -5.046875q0 1.546875 0.4375 2.234375q0.609375 1.015625 1.71875 1.015625q0.890625 0 1.5 -0.75q0.625 -0.765625 0.625 -2.25q0 -1.671875 -0.609375 -2.40625q-0.59375 -0.734375 -1.53125 -0.734375q-0.90625 0 -1.53125 0.734375q-0.609375 0.71875 -0.609375 2.15625zm14.958496 1.96875l2.546875 0.421875q-0.484375 1.40625 -1.546875 2.140625q-1.0625 0.734375 -2.65625 0.734375q-2.515625 0 -3.734375 -1.65625q-0.953125 -1.3125 -0.953125 -3.328125q0 -2.40625 1.25 -3.765625q1.265625 -1.359375 3.1875 -1.359375q2.15625 0 3.40625 1.421875q1.25 1.421875 1.1875 4.375l-6.40625 0q0.03125 1.140625 0.609375 1.78125q0.59375 0.625 1.484375 0.625q0.59375 0 1.0 -0.328125q0.421875 -0.328125 0.625 -1.0625zm0.15625 -2.59375q-0.03125 -1.109375 -0.578125 -1.6875q-0.546875 -0.578125 -1.328125 -0.578125q-0.84375 0 -1.390625 0.609375q-0.546875 0.609375 -0.53125 1.65625l3.828125 0zm3.391327 5.671875l3.484375 -4.984375l-3.34375 -4.6875l3.125 0l1.71875 2.65625l1.796875 -2.65625l3.015625 0l-3.28125 4.578125l3.578125 5.09375l-3.140625 0l-1.96875 -3.0l-1.984375 3.0l-3.0 0z" fill-rule="nonzero"/><path fill="#cfe2f3" d="m13.860892 54.415485l0 0c0 -21.746826 17.629288 -39.376114 39.376114 -39.376114l461.40527 0c10.443176 0 20.458618 4.1485434 27.843079 11.532996c7.3844604 7.3844547 11.53302 17.399923 11.53302 27.843119l0 157.49974c0 21.746826 -17.629272 39.376114 -39.3761 39.376114l-461.40527 0c-21.746828 0 -39.376114 -17.629288 -39.376114 -39.376114z" fill-rule="evenodd"/><path fill="#000000" d="m241.21771 48.585987l0 -2.25l5.8125 0l0 5.3125q-0.84375 0.828125 -2.453125 1.453125q-1.609375 0.625 -3.25 0.625q-2.09375 0 -3.65625 -0.875q-1.5625 -0.890625 -2.34375 -2.515625q-0.78125 -1.640625 -0.78125 -3.5625q0 -2.09375 0.875 -3.703125q0.875 -1.625 2.5625 -2.5q1.28125 -0.65625 3.203125 -0.65625q2.484375 0 3.875 1.046875q1.40625 1.03125 1.796875 2.875l-2.671875 0.5q-0.28125 -0.984375 -1.0625 -1.546875q-0.78125 -0.578125 -1.9375 -0.578125q-1.78125 0 -2.828125 1.125q-1.03125 1.125 -1.03125 3.328125q0 2.375 1.046875 3.5625q1.0625 1.1875 2.78125 1.1875q0.84375 0 1.6875 -0.328125q0.859375 -0.328125 1.46875 -0.8125l0 -1.6875l-3.09375 0zm13.886429 1.828125l2.5468597 0.421875q-0.484375 1.40625 -1.546875 2.140625q-1.0624847 0.734375 -2.6562347 0.734375q-2.515625 0 -3.734375 -1.65625q-0.953125 -1.3125 -0.953125 -3.328125q0 -2.40625 1.25 -3.765625q1.265625 -1.359375 3.1875 -1.359375q2.15625 0 3.4062347 1.421875q1.25 1.421875 1.1875 4.375l-6.4062347 0q0.03125 1.140625 0.609375 1.78125q0.59375 0.625 1.484375 0.625q0.59375 0 1.0 -0.328125q0.421875 -0.328125 0.625 -1.0625zm0.15625 -2.59375q-0.03125 -1.109375 -0.578125 -1.6875q-0.546875 -0.578125 -1.328125 -0.578125q-0.84375 0 -1.390625 0.609375q-0.546875 0.609375 -0.53125 1.65625l3.828125 0zm13.422592 5.671875l-2.5625 0l0 -4.9375q0 -1.5625 -0.171875 -2.015625q-0.15625 -0.46875 -0.53125 -0.71875q-0.359375 -0.265625 -0.875 -0.265625q-0.671875 0 -1.203125 0.375q-0.53125 0.359375 -0.734375 0.96875q-0.1875 0.59375 -0.1875 2.21875l0 4.375l-2.546875 0l0 -9.671875l2.375 0l0 1.421875q1.265625 -1.640625 3.1875 -1.640625q0.84375 0 1.546875 0.3125q0.703125 0.296875 1.0625 0.78125q0.359375 0.46875 0.5 1.078125q0.140625 0.59375 0.140625 1.703125l0 6.015625zm8.192841 -3.078125l2.546875 0.421875q-0.484375 1.40625 -1.546875 2.140625q-1.0625 0.734375 -2.65625 0.734375q-2.515625 0 -3.734375 -1.65625q-0.953125 -1.3125 -0.953125 -3.328125q0 -2.40625 1.25 -3.765625q1.265625 -1.359375 3.1875 -1.359375q2.15625 0 3.40625 1.421875q1.25 1.421875 1.1875 4.375l-6.40625 0q0.03125 1.140625 0.609375 1.78125q0.59375 0.625 1.484375 0.625q0.59375 0 1.0 -0.328125q0.421875 -0.328125 0.625 -1.0625zm0.15625 -2.59375q-0.03125 -1.109375 -0.578125 -1.6875q-0.546875 -0.578125 -1.328125 -0.578125q-0.84375 0 -1.390625 0.609375q-0.546875 0.609375 -0.53125 1.65625l3.828125 0zm9.746521 5.671875l0 -13.359375l2.6875 0l0 13.359375l-2.6875 0zm14.042694 0l-2.5625 0l0 -4.9375q0 -1.5625 -0.171875 -2.015625q-0.15625 -0.46875 -0.53125 -0.71875q-0.359375 -0.265625 -0.875 -0.265625q-0.671875 0 -1.203125 0.375q-0.53125 0.359375 -0.734375 0.96875q-0.1875 0.59375 -0.1875 2.21875l0 4.375l-2.546875 0l0 -9.671875l2.375 0l0 1.421875q1.265625 -1.640625 3.1875 -1.640625q0.84375 0 1.546875 0.3125q0.703125 0.296875 1.0625 0.78125q0.359375 0.46875 0.5 1.078125q0.140625 0.59375 0.140625 1.703125l0 6.015625zm11.474091 0l-2.390625 0l0 -1.421875q-0.59375 0.828125 -1.40625 1.234375q-0.796875 0.40625 -1.609375 0.40625q-1.671875 0 -2.859375 -1.34375q-1.1875 -1.34375 -1.1875 -3.75q0 -2.453125 1.15625 -3.734375q1.15625 -1.28125 2.921875 -1.28125q1.625 0 2.8125 1.34375l0 -4.8125l2.5625 0l0 13.359375zm-6.84375 -5.046875q0 1.546875 0.4375 2.234375q0.609375 1.015625 1.71875 1.015625q0.890625 0 1.5 -0.75q0.625 -0.765625 0.625 -2.25q0 -1.671875 -0.609375 -2.40625q-0.59375 -0.734375 -1.53125 -0.734375q-0.90625 0 -1.53125 0.734375q-0.609375 0.71875 -0.609375 2.15625zm14.958496 1.96875l2.546875 0.421875q-0.484375 1.40625 -1.546875 2.140625q-1.0625 0.734375 -2.65625 0.734375q-2.515625 0 -3.734375 -1.65625q-0.953125 -1.3125 -0.953125 -3.328125q0 -2.40625 1.25 -3.765625q1.265625 -1.359375 3.1875 -1.359375q2.15625 0 3.40625 1.421875q1.25 1.421875 1.1875 4.375l-6.40625 0q0.03125 1.140625 0.609375 1.78125q0.59375 0.625 1.484375 0.625q0.59375 0 1.0 -0.328125q0.421875 -0.328125 0.625 -1.0625zm0.15625 -2.59375q-0.03125 -1.109375 -0.578125 -1.6875q-0.546875 -0.578125 -1.328125 -0.578125q-0.84375 0 -1.390625 0.609375q-0.546875 0.609375 -0.53125 1.65625l3.828125 0zm3.3913574 5.671875l3.484375 -4.984375l-3.34375 -4.6875l3.125 0l1.71875 2.65625l1.796875 -2.65625l3.015625 0l-3.28125 4.578125l3.578125 5.09375l-3.140625 0l-1.96875 -3.0l-1.984375 3.0l-3.0 0z" fill-rule="nonzero"/><path fill="#9fc5e8" d="m332.91602 81.433304l0 0c0 -6.5086823 5.2763367 -11.785011 11.785004 -11.785011l171.54807 0c3.1256104 0 6.123169 1.2416306 8.333313 3.4517517c2.210083 2.2101212 3.4517212 5.2076797 3.4517212 8.33326l0 47.13864c0 6.5086823 -5.276306 11.785004 -11.785034 11.785004l-171.54807 0c-6.508667 0 -11.785004 -5.2763214 -11.785004 -11.785004z" fill-rule="evenodd"/><path fill="#000000" d="m401.34198 95.68825l0 -1.578125l5.65625 0l0 4.953125q-1.296875 1.046875 -2.6875 1.578125q-1.375 0.515625 -2.84375 0.515625q-1.96875 0 -3.578125 -0.84375q-1.609375 -0.84375 -2.421875 -2.4375q-0.8125 -1.59375 -0.8125 -3.5625q0 -1.953125 0.8125 -3.640625q0.8125 -1.6875 2.34375 -2.5q1.53125 -0.828125 3.515625 -0.828125q1.453125 0 2.625 0.46875q1.171875 0.46875 1.828125 1.3125q0.671875 0.828125 1.015625 2.171875l-1.59375 0.4375q-0.296875 -1.015625 -0.75 -1.59375q-0.4375 -0.59375 -1.265625 -0.9375q-0.828125 -0.34375 -1.84375 -0.34375q-1.203125 0 -2.09375 0.375q-0.890625 0.359375 -1.4375 0.96875q-0.53125 0.59375 -0.828125 1.3125q-0.515625 1.234375 -0.515625 2.6875q0 1.78125 0.609375 2.984375q0.625 1.203125 1.796875 1.796875q1.171875 0.578125 2.5 0.578125q1.140625 0 2.234375 -0.4375q1.09375 -0.453125 1.65625 -0.953125l0 -2.484375l-3.921875 0zm14.683319 2.125l1.6875 0.203125q-0.40625 1.484375 -1.484375 2.3125q-1.078125 0.8125 -2.765625 0.8125q-2.125 0 -3.375 -1.296875q-1.234375 -1.3125 -1.234375 -3.671875q0 -2.453125 1.25 -3.796875q1.265625 -1.34375 3.265625 -1.34375q1.9375 0 3.15625 1.328125q1.234375 1.3125 1.234375 3.703125q0 0.15625 0 0.4375l-7.21875 0q0.09375 1.59375 0.90625 2.453125q0.8125 0.84375 2.015625 0.84375q0.90625 0 1.546875 -0.46875q0.640625 -0.484375 1.015625 -1.515625zm-5.390625 -2.65625l5.40625 0q-0.109375 -1.21875 -0.625 -1.828125q-0.78125 -0.953125 -2.03125 -0.953125q-1.125 0 -1.90625 0.765625q-0.765625 0.75 -0.84375 2.015625zm9.141327 5.765625l0 -9.671875l1.46875 0l0 1.375q1.0625 -1.59375 3.078125 -1.59375q0.875 0 1.609375 0.3125q0.734375 0.3125 1.09375 0.828125q0.375 0.5 0.515625 1.203125q0.09375 0.453125 0.09375 1.59375l0 5.953125l-1.640625 0l0 -5.890625q0 -1.0 -0.203125 -1.484375q-0.1875 -0.5 -0.671875 -0.796875q-0.484375 -0.296875 -1.140625 -0.296875q-1.046875 0 -1.8125 0.671875q-0.75 0.65625 -0.75 2.515625l0 5.28125l-1.640625 0zm17.000732 -3.109375l1.6875 0.203125q-0.40625 1.484375 -1.484375 2.3125q-1.078125 0.8125 -2.765625 0.8125q-2.125 0 -3.375 -1.296875q-1.234375 -1.3125 -1.234375 -3.671875q0 -2.453125 1.25 -3.796875q1.265625 -1.34375 3.265625 -1.34375q1.9375 0 3.15625 1.328125q1.234375 1.3125 1.234375 3.703125q0 0.15625 0 0.4375l-7.21875 0q0.09375 1.59375 0.90625 2.453125q0.8125 0.84375 2.015625 0.84375q0.90625 0 1.546875 -0.46875q0.640625 -0.484375 1.015625 -1.515625zm-5.390625 -2.65625l5.40625 0q-0.109375 -1.21875 -0.625 -1.828125q-0.78125 -0.953125 -2.03125 -0.953125q-1.125 0 -1.90625 0.765625q-0.765625 0.75 -0.84375 2.015625zm8.750702 1.46875l1.65625 -0.140625q0.125 1.0 0.546875 1.640625q0.4375 0.640625 1.34375 1.046875q0.921875 0.390625 2.0625 0.390625q1.0 0 1.78125 -0.296875q0.78125 -0.296875 1.15625 -0.8125q0.375 -0.53125 0.375 -1.15625q0 -0.625 -0.375 -1.09375q-0.359375 -0.46875 -1.1875 -0.796875q-0.546875 -0.203125 -2.390625 -0.640625q-1.828125 -0.453125 -2.5625 -0.84375q-0.96875 -0.5 -1.4375 -1.234375q-0.46875 -0.75 -0.46875 -1.671875q0 -1.0 0.578125 -1.875q0.578125 -0.890625 1.671875 -1.34375q1.109375 -0.453125 2.453125 -0.453125q1.484375 0 2.609375 0.484375q1.140625 0.46875 1.75 1.40625q0.609375 0.921875 0.65625 2.09375l-1.6875 0.125q-0.140625 -1.265625 -0.9375 -1.90625q-0.78125 -0.65625 -2.3125 -0.65625q-1.609375 0 -2.34375 0.59375q-0.734375 0.59375 -0.734375 1.421875q0 0.71875 0.53125 1.171875q0.5 0.46875 2.65625 0.96875q2.15625 0.484375 2.953125 0.84375q1.171875 0.53125 1.71875 1.359375q0.5625 0.828125 0.5625 1.90625q0 1.0625 -0.609375 2.015625q-0.609375 0.9375 -1.75 1.46875q-1.140625 0.515625 -2.578125 0.515625q-1.8125 0 -3.046875 -0.53125q-1.21875 -0.53125 -1.921875 -1.59375q-0.6875 -1.0625 -0.71875 -2.40625zm19.459198 1.1875l1.6875 0.203125q-0.40625 1.484375 -1.484375 2.3125q-1.078125 0.8125 -2.765625 0.8125q-2.125 0 -3.375 -1.296875q-1.234375 -1.3125 -1.234375 -3.671875q0 -2.453125 1.25 -3.796875q1.265625 -1.34375 3.265625 -1.34375q1.9375 0 3.15625 1.328125q1.234375 1.3125 1.234375 3.703125q0 0.15625 0 0.4375l-7.21875 0q0.09375 1.59375 0.90625 2.453125q0.8125 0.84375 2.015625 0.84375q0.90625 0 1.546875 -0.46875q0.640625 -0.484375 1.015625 -1.515625zm-5.390625 -2.65625l5.40625 0q-0.109375 -1.21875 -0.625 -1.828125q-0.78125 -0.953125 -2.03125 -0.953125q-1.125 0 -1.90625 0.765625q-0.765625 0.75 -0.84375 2.015625zm12.719482 4.296875l0.234375 1.453125q-0.6875 0.140625 -1.234375 0.140625q-0.890625 0 -1.390625 -0.28125q-0.484375 -0.28125 -0.6875 -0.734375q-0.203125 -0.46875 -0.203125 -1.9375l0 -5.578125l-1.203125 0l0 -1.265625l1.203125 0l0 -2.390625l1.625 -0.984375l0 3.375l1.65625 0l0 1.265625l-1.65625 0l0 5.671875q0 0.6875 0.078125 0.890625q0.09375 0.203125 0.28125 0.328125q0.203125 0.109375 0.578125 0.109375q0.265625 0 0.71875 -0.0625z" fill-rule="nonzero"/><path fill="#000000" d="m389.07333 118.23512l1.765625 0.453125q-0.5625 2.171875 -2.0 3.328125q-1.4375 1.140625 -3.53125 1.140625q-2.15625 0 -3.515625 -0.875q-1.34375 -0.890625 -2.0625 -2.546875q-0.703125 -1.671875 -0.703125 -3.59375q0 -2.078125 0.796875 -3.625q0.796875 -1.5625 2.265625 -2.359375q1.484375 -0.8125 3.25 -0.8125q2.0 0 3.359375 1.015625q1.375 1.015625 1.90625 2.875l-1.734375 0.40625q-0.46875 -1.453125 -1.359375 -2.109375q-0.875 -0.671875 -2.203125 -0.671875q-1.546875 0 -2.578125 0.734375q-1.03125 0.734375 -1.453125 1.984375q-0.421875 1.234375 -0.421875 2.5625q0 1.703125 0.5 2.96875q0.5 1.265625 1.546875 1.90625q1.046875 0.625 2.265625 0.625q1.484375 0 2.515625 -0.859375q1.03125 -0.859375 1.390625 -2.546875zm3.129181 -0.15625q0 -2.6875 1.484375 -3.96875q1.25 -1.078125 3.046875 -1.078125q2.0 0 3.265625 1.3125q1.265625 1.296875 1.265625 3.609375q0 1.859375 -0.5625 2.9375q-0.5625 1.0625 -1.640625 1.65625q-1.0625 0.59375 -2.328125 0.59375q-2.03125 0 -3.28125 -1.296875q-1.25 -1.3125 -1.25 -3.765625zm1.6875 0q0 1.859375 0.796875 2.796875q0.8125 0.921875 2.046875 0.921875q1.21875 0 2.03125 -0.921875q0.8125 -0.9375 0.8125 -2.84375q0 -1.796875 -0.8125 -2.71875q-0.8125 -0.921875 -2.03125 -0.921875q-1.234375 0 -2.046875 0.921875q-0.796875 0.90625 -0.796875 2.765625zm9.297607 4.84375l0 -9.671875l1.46875 0l0 1.359375q0.453125 -0.71875 1.203125 -1.140625q0.765625 -0.4375 1.71875 -0.4375q1.078125 0 1.765625 0.453125q0.6875 0.4375 0.96875 1.234375q1.15625 -1.6875 2.984375 -1.6875q1.453125 0 2.21875 0.796875q0.78125 0.796875 0.78125 2.453125l0 6.640625l-1.640625 0l0 -6.09375q0 -0.984375 -0.15625 -1.40625q-0.15625 -0.4375 -0.578125 -0.703125q-0.421875 -0.265625 -0.984375 -0.265625q-1.015625 0 -1.6875 0.6875q-0.671875 0.671875 -0.671875 2.15625l0 5.625l-1.640625 0l0 -6.28125q0 -1.09375 -0.40625 -1.640625q-0.40625 -0.546875 -1.3125 -0.546875q-0.6875 0 -1.28125 0.359375q-0.59375 0.359375 -0.859375 1.0625q-0.25 0.703125 -0.25 2.03125l0 5.015625l-1.640625 0zm17.040802 0l-1.515625 0l0 -13.359375l1.640625 0l0 4.765625q1.046875 -1.296875 2.65625 -1.296875q0.890625 0 1.6875 0.359375q0.796875 0.359375 1.3125 1.015625q0.515625 0.640625 0.796875 1.5625q0.296875 0.921875 0.296875 1.96875q0 2.484375 -1.234375 3.84375q-1.21875 1.359375 -2.953125 1.359375q-1.703125 0 -2.6875 -1.4375l0 1.21875zm-0.015625 -4.90625q0 1.734375 0.484375 2.515625q0.765625 1.265625 2.09375 1.265625q1.078125 0 1.859375 -0.9375q0.78125 -0.9375 0.78125 -2.78125q0 -1.890625 -0.75 -2.796875q-0.75 -0.90625 -1.828125 -0.90625q-1.0625 0 -1.859375 0.9375q-0.78125 0.9375 -0.78125 2.703125zm8.891327 -6.5625l0 -1.890625l1.640625 0l0 1.890625l-1.640625 0zm0 11.46875l0 -9.671875l1.640625 0l0 9.671875l-1.640625 0zm4.1448364 0l0 -9.671875l1.46875 0l0 1.375q1.0625 -1.59375 3.078125 -1.59375q0.875 0 1.609375 0.3125q0.734375 0.3125 1.09375 0.828125q0.375 0.5 0.515625 1.203125q0.09375 0.453125 0.09375 1.59375l0 5.953125l-1.640625 0l0 -5.890625q0 -1.0 -0.203125 -1.484375q-0.1875 -0.5 -0.671875 -0.796875q-0.484375 -0.296875 -1.140625 -0.296875q-1.046875 0 -1.8125 0.671875q-0.75 0.65625 -0.75 2.515625l0 5.28125l-1.640625 0zm16.688202 -1.1875q-0.921875 0.765625 -1.765625 1.09375q-0.828125 0.3125 -1.796875 0.3125q-1.59375 0 -2.453125 -0.78125q-0.859375 -0.78125 -0.859375 -1.984375q0 -0.71875 0.328125 -1.296875q0.328125 -0.59375 0.84375 -0.9375q0.53125 -0.359375 1.1875 -0.546875q0.46875 -0.125 1.453125 -0.25q1.984375 -0.234375 2.921875 -0.5625q0.015625 -0.34375 0.015625 -0.421875q0 -1.0 -0.46875 -1.421875q-0.625 -0.546875 -1.875 -0.546875q-1.15625 0 -1.703125 0.40625q-0.546875 0.40625 -0.8125 1.421875l-1.609375 -0.21875q0.21875 -1.015625 0.71875 -1.640625q0.5 -0.640625 1.453125 -0.984375q0.953125 -0.34375 2.1875 -0.34375q1.25 0 2.015625 0.296875q0.78125 0.28125 1.140625 0.734375q0.375 0.4375 0.515625 1.109375q0.078125 0.421875 0.078125 1.515625l0 2.1875q0 2.28125 0.109375 2.890625q0.109375 0.59375 0.40625 1.15625l-1.703125 0q-0.265625 -0.515625 -0.328125 -1.1875zm-0.140625 -3.671875q-0.890625 0.375 -2.671875 0.625q-1.015625 0.140625 -1.4375 0.328125q-0.421875 0.1875 -0.65625 0.53125q-0.21875 0.34375 -0.21875 0.78125q0 0.65625 0.5 1.09375q0.5 0.4375 1.453125 0.4375q0.9375 0 1.671875 -0.40625q0.75 -0.421875 1.09375 -1.140625q0.265625 -0.5625 0.265625 -1.640625l0 -0.609375zm7.7819824 3.390625l0.234375 1.453125q-0.6875 0.140625 -1.234375 0.140625q-0.890625 0 -1.390625 -0.28125q-0.484375 -0.28125 -0.6875 -0.734375q-0.203125 -0.46875 -0.203125 -1.9375l0 -5.578125l-1.203125 0l0 -1.265625l1.203125 0l0 -2.390625l1.625 -0.984375l0 3.375l1.65625 0l0 1.265625l-1.65625 0l0 5.671875q0 0.6875 0.078125 0.890625q0.09375 0.203125 0.28125 0.328125q0.203125 0.109375 0.578125 0.109375q0.265625 0 0.71875 -0.0625zm1.6051636 -10.0l0 -1.890625l1.640625 0l0 1.890625l-1.640625 0zm0 11.46875l0 -9.671875l1.640625 0l0 9.671875l-1.640625 0zm3.5354614 -4.84375q0 -2.6875 1.484375 -3.96875q1.25 -1.078125 3.046875 -1.078125q2.0 0 3.265625 1.3125q1.265625 1.296875 1.265625 3.609375q0 1.859375 -0.5625 2.9375q-0.5625 1.0625 -1.640625 1.65625q-1.0625 0.59375 -2.328125 0.59375q-2.03125 0 -3.28125 -1.296875q-1.25 -1.3125 -1.25 -3.765625zm1.6875 0q0 1.859375 0.796875 2.796875q0.8125 0.921875 2.046875 0.921875q1.21875 0 2.03125 -0.921875q0.8125 -0.9375 0.8125 -2.84375q0 -1.796875 -0.8125 -2.71875q-0.8125 -0.921875 -2.03125 -0.921875q-1.234375 0 -2.046875 0.921875q-0.796875 0.90625 -0.796875 2.765625zm9.297577 4.84375l0 -9.671875l1.46875 0l0 1.375q1.0625 -1.59375 3.078125 -1.59375q0.875 0 1.609375 0.3125q0.734375 0.3125 1.09375 0.828125q0.375 0.5 0.515625 1.203125q0.09375 0.453125 0.09375 1.59375l0 5.953125l-1.640625 0l0 -5.890625q0 -1.0 -0.203125 -1.484375q-0.1875 -0.5 -0.671875 -0.796875q-0.484375 -0.296875 -1.140625 -0.296875q-1.046875 0 -1.8125 0.671875q-0.75 0.65625 -0.75 2.515625l0 5.28125l-1.640625 0z" fill-rule="nonzero"/><path fill="#000000" fill-opacity="0.0" d="m265.34122 81.27559l37.19684 0l0 49.984253l-37.19684 0z" fill-rule="evenodd"/><path fill="#000000" d="m275.24747 104.52371q0 -2.828125 1.671875 -4.6875q1.375 -1.53125 3.609375 -1.53125q1.75 0 2.8125 1.09375q1.078125 1.09375 1.078125 2.953125q0 1.65625 -0.671875 3.09375q-0.671875 1.4375 -1.921875 2.203125q-1.25 0.765625 -2.625 0.765625q-1.125 0 -2.046875 -0.484375q-0.921875 -0.484375 -1.421875 -1.359375q-0.484375 -0.890625 -0.484375 -2.046875zm1.65625 -0.15625q0 1.359375 0.65625 2.0625q0.65625 0.703125 1.65625 0.703125q0.53125 0 1.046875 -0.203125q0.53125 -0.21875 0.96875 -0.65625q0.453125 -0.4375 0.765625 -1.0q0.3125 -0.5625 0.5 -1.203125q0.28125 -0.90625 0.28125 -1.734375q0 -1.3125 -0.65625 -2.03125q-0.65625 -0.734375 -1.65625 -0.734375q-0.78125 0 -1.421875 0.375q-0.625 0.375 -1.140625 1.09375q-0.515625 0.703125 -0.765625 1.640625q-0.234375 0.9375 -0.234375 1.6875zm8.438202 3.828125l2.015625 -9.671875l1.453125 0l-0.40625 1.96875q0.75 -1.109375 1.453125 -1.640625q0.71875 -0.546875 1.46875 -0.546875q0.5 0 1.21875 0.359375l-0.671875 1.53125q-0.4375 -0.3125 -0.9375 -0.3125q-0.875 0 -1.78125 0.96875q-0.90625 0.953125 -1.4375 3.46875l-0.8125 3.875l-1.5625 0z" fill-rule="nonzero"/><path fill="#3d85c6" d="m415.23096 167.50656l7.6220703 0l0 -27.149612l15.24408 0l0 27.149612l7.62204 0l-15.24408 15.244095z" fill-rule="evenodd"/><path fill="#9fc5e8" d="m42.459316 351.40173l0 0c0 -4.2647095 3.4572296 -7.7219543 7.721939 -7.7219543l467.51675 0c2.0479736 0 4.012085 0.8135681 5.460266 2.2617188c1.4481201 1.4481506 2.2616577 3.4122314 2.2616577 5.4602356l0 30.88684c0 4.2647095 -3.4572144 7.721924 -7.721924 7.721924l-467.51675 0l0 0c-4.2647095 0 -7.721939 -3.4572144 -7.721939 -7.721924z" fill-rule="evenodd"/><path fill="#000000" d="m191.26837 368.1714q0 -3.578125 2.0625 -5.78125q2.0625 -2.203125 5.0 -2.203125q2.5 0 4.0625 1.625q1.578125 1.625 1.578125 4.359375q0 1.953125 -0.78125 3.609375q-0.59375 1.25 -1.5 2.15625q-0.90625 0.90625 -1.9375 1.40625q-1.359375 0.65625 -2.890625 0.65625q-1.609375 0 -2.921875 -0.765625q-1.3125 -0.765625 -2.0 -2.140625q-0.671875 -1.375 -0.671875 -2.921875zm1.765625 0.09375q0 1.171875 0.484375 2.15625q0.484375 0.984375 1.453125 1.546875q0.96875 0.546875 2.03125 0.546875q1.03125 0 1.953125 -0.484375q0.9375 -0.484375 1.65625 -1.359375q0.734375 -0.875 1.15625 -2.140625q0.4375 -1.265625 0.4375 -2.5q0 -2.0 -1.125 -3.171875q-1.109375 -1.1875 -2.75 -1.1875q-2.09375 0 -3.703125 1.796875q-1.59375 1.78125 -1.59375 4.796875zm10.855179 9.203125l2.796875 -13.375l1.515625 0l-0.28125 1.34375q0.84375 -0.875 1.515625 -1.21875q0.671875 -0.34375 1.421875 -0.34375q1.375 0 2.28125 1.015625q0.921875 1.0 0.921875 2.875q0 1.515625 -0.5 2.765625q-0.5 1.234375 -1.234375 2.0q-0.71875 0.75 -1.46875 1.109375q-0.75 0.34375 -1.53125 0.34375q-1.75 0 -2.703125 -1.765625l-1.09375 5.25l-1.640625 0zm3.25 -7.65625q0 1.078125 0.15625 1.5q0.234375 0.59375 0.75 0.96875q0.515625 0.359375 1.203125 0.359375q1.421875 0 2.296875 -1.59375q0.875 -1.609375 0.875 -3.28125q0 -1.21875 -0.59375 -1.890625q-0.578125 -0.671875 -1.453125 -0.671875q-0.625 0 -1.171875 0.34375q-0.53125 0.328125 -1.0 0.984375q-0.453125 0.65625 -0.765625 1.609375q-0.296875 0.953125 -0.296875 1.671875zm11.781967 2.609375l-0.265625 1.359375q-0.59375 0.140625 -1.15625 0.140625q-0.984375 0 -1.5625 -0.46875q-0.4375 -0.375 -0.4375 -1.0q0 -0.3125 0.234375 -1.46875l1.171875 -5.625l-1.296875 0l0.265625 -1.265625l1.296875 0l0.5 -2.375l1.890625 -1.140625l-0.734375 3.515625l1.625 0l-0.28125 1.265625l-1.609375 0l-1.125 5.359375q-0.203125 1.015625 -0.203125 1.21875q0 0.28125 0.15625 0.4375q0.171875 0.15625 0.5625 0.15625q0.546875 0 0.96875 -0.109375zm3.6676788 -10.140625l0.40625 -1.875l1.625 0l-0.390625 1.875l-1.640625 0zm-2.390625 11.484375l2.015625 -9.671875l1.65625 0l-2.03125 9.671875l-1.640625 0zm4.488571 -3.671875q0 -2.828125 1.671875 -4.6875q1.375 -1.53125 3.609375 -1.53125q1.75 0 2.8125 1.09375q1.078125 1.09375 1.078125 2.953125q0 1.65625 -0.671875 3.09375q-0.671875 1.4375 -1.921875 2.203125q-1.25 0.765625 -2.625 0.765625q-1.125 0 -2.046875 -0.484375q-0.921875 -0.484375 -1.421875 -1.359375q-0.484375 -0.890625 -0.484375 -2.046875zm1.65625 -0.15625q0 1.359375 0.65625 2.0625q0.65625 0.703125 1.65625 0.703125q0.53125 0 1.046875 -0.203125q0.53125 -0.21875 0.96875 -0.65625q0.453125 -0.4375 0.765625 -1.0q0.3125 -0.5625 0.5 -1.203125q0.28125 -0.90625 0.28125 -1.734375q0 -1.3125 -0.65625 -2.03125q-0.65625 -0.734375 -1.65625 -0.734375q-0.78125 0 -1.421875 0.375q-0.625 0.375 -1.140625 1.09375q-0.515625 0.703125 -0.765625 1.640625q-0.234375 0.9375 -0.234375 1.6875zm8.438217 3.828125l2.015625 -9.671875l1.5 0l-0.359375 1.6875q0.96875 -1.0 1.8125 -1.453125q0.859375 -0.453125 1.734375 -0.453125q1.1875 0 1.84375 0.640625q0.671875 0.625 0.671875 1.703125q0 0.53125 -0.234375 1.6875l-1.234375 5.859375l-1.640625 0l1.28125 -6.125q0.1875 -0.890625 0.1875 -1.328125q0 -0.484375 -0.328125 -0.78125q-0.328125 -0.296875 -0.953125 -0.296875q-1.28125 0 -2.265625 0.90625q-0.984375 0.90625 -1.453125 3.125l-0.9375 4.5l-1.640625 0zm16.891342 -1.203125q-0.859375 0.734375 -1.65625 1.078125q-0.78125 0.34375 -1.6875 0.34375q-1.34375 0 -2.171875 -0.78125q-0.8125 -0.796875 -0.8125 -2.03125q0 -0.796875 0.375 -1.421875q0.375 -0.625 0.984375 -1.0q0.609375 -0.390625 1.484375 -0.546875q0.5625 -0.109375 2.109375 -0.171875q1.5625 -0.0625 2.234375 -0.328125q0.1875 -0.671875 0.1875 -1.125q0 -0.578125 -0.421875 -0.90625q-0.5625 -0.453125 -1.671875 -0.453125q-1.03125 0 -1.703125 0.46875q-0.65625 0.453125 -0.953125 1.296875l-1.671875 -0.140625q0.515625 -1.4375 1.609375 -2.203125q1.109375 -0.765625 2.796875 -0.765625q1.796875 0 2.84375 0.859375q0.796875 0.625 0.796875 1.65625q0 0.765625 -0.21875 1.796875l-0.53125 2.40625q-0.265625 1.140625 -0.265625 1.859375q0 0.453125 0.203125 1.3125l-1.671875 0q-0.125 -0.46875 -0.1875 -1.203125zm0.609375 -3.703125q-0.34375 0.140625 -0.75 0.21875q-0.390625 0.0625 -1.3125 0.15625q-1.4375 0.125 -2.03125 0.328125q-0.59375 0.1875 -0.90625 0.625q-0.296875 0.421875 -0.296875 0.9375q0 0.6875 0.484375 1.140625q0.484375 0.4375 1.359375 0.4375q0.828125 0 1.578125 -0.421875q0.75 -0.4375 1.1875 -1.203125q0.4375 -0.78125 0.6875 -2.21875zm3.1100922 4.90625l2.7968903 -13.359375l1.640625 0l-2.78125 13.359375l-1.6562653 0zm10.156265 -4.3125l1.75 -0.171875l-0.015625 0.46875q0 0.765625 0.34375 1.421875q0.359375 0.640625 1.171875 1.0q0.828125 0.34375 1.953125 0.34375q1.609375 0 2.453125 -0.703125q0.84375 -0.703125 0.84375 -1.609375q0 -0.625 -0.453125 -1.140625q-0.453125 -0.515625 -2.484375 -1.390625q-1.578125 -0.6875 -2.140625 -1.046875q-0.90625 -0.59375 -1.34375 -1.28125q-0.421875 -0.703125 -0.421875 -1.59375q0 -1.03125 0.5625 -1.859375q0.5625 -0.828125 1.65625 -1.265625q1.09375 -0.4375 2.453125 -0.4375q1.640625 0 2.75 0.546875q1.125 0.546875 1.625 1.453125q0.515625 0.90625 0.515625 1.734375q0 0.09375 -0.015625 0.28125l-1.71875 0.140625q0 -0.578125 -0.109375 -0.890625q-0.171875 -0.5625 -0.5625 -0.9375q-0.375 -0.390625 -1.046875 -0.609375q-0.671875 -0.234375 -1.5 -0.234375q-1.453125 0 -2.265625 0.65625q-0.625 0.5 -0.625 1.328125q0 0.484375 0.25 0.875q0.265625 0.390625 0.921875 0.765625q0.484375 0.265625 2.25 1.046875q1.453125 0.640625 2.0 1.0q0.71875 0.484375 1.109375 1.171875q0.390625 0.6875 0.390625 1.5625q0 1.078125 -0.65625 2.0q-0.65625 0.90625 -1.828125 1.421875q-1.15625 0.5 -2.671875 0.5q-2.265625 0 -3.703125 -0.984375q-1.421875 -1.0 -1.4375 -3.5625zm18.271698 3.109375q-0.859375 0.734375 -1.65625 1.078125q-0.78125 0.34375 -1.6875 0.34375q-1.34375 0 -2.171875 -0.78125q-0.8125 -0.796875 -0.8125 -2.03125q0 -0.796875 0.375 -1.421875q0.375 -0.625 0.984375 -1.0q0.609375 -0.390625 1.484375 -0.546875q0.5625 -0.109375 2.109375 -0.171875q1.5625 -0.0625 2.234375 -0.328125q0.1875 -0.671875 0.1875 -1.125q0 -0.578125 -0.421875 -0.90625q-0.5625 -0.453125 -1.671875 -0.453125q-1.03125 0 -1.703125 0.46875q-0.65625 0.453125 -0.953125 1.296875l-1.671875 -0.140625q0.515625 -1.4375 1.609375 -2.203125q1.109375 -0.765625 2.796875 -0.765625q1.796875 0 2.84375 0.859375q0.796875 0.625 0.796875 1.65625q0 0.765625 -0.21875 1.796875l-0.53125 2.40625q-0.265625 1.140625 -0.265625 1.859375q0 0.453125 0.203125 1.3125l-1.671875 0q-0.125 -0.46875 -0.1875 -1.203125zm0.609375 -3.703125q-0.34375 0.140625 -0.75 0.21875q-0.390625 0.0625 -1.3125 0.15625q-1.4375 0.125 -2.03125 0.328125q-0.59375 0.1875 -0.90625 0.625q-0.296875 0.421875 -0.296875 0.9375q0 0.6875 0.484375 1.140625q0.484375 0.4375 1.359375 0.4375q0.828125 0 1.578125 -0.421875q0.75 -0.4375 1.1875 -1.203125q0.4375 -0.78125 0.6875 -2.21875zm3.235077 4.90625l2.015625 -9.671875l1.65625 0l-0.34375 1.59375q0.921875 -1.03125 1.640625 -1.421875q0.734375 -0.390625 1.578125 -0.390625q0.90625 0 1.515625 0.484375q0.609375 0.46875 0.796875 1.328125q0.734375 -0.90625 1.546875 -1.359375q0.8125 -0.453125 1.71875 -0.453125q1.2187805 0 1.8125305 0.578125q0.609375 0.5625 0.609375 1.609375q0 0.4375 -0.203125 1.46875l-1.3125305 6.234375l-1.640625 0l1.328125 -6.390625q0.171875 -0.78125 0.171875 -1.125q0 -0.46875 -0.296875 -0.734375q-0.296875 -0.28125 -0.84375 -0.28125q-0.75 0 -1.515625 0.453125q-0.765625 0.4375 -1.1875 1.171875q-0.421875 0.71875 -0.734375 2.21875l-0.984375 4.6875l-1.65625 0l1.375 -6.53125q0.140625 -0.671875 0.140625 -0.953125q0 -0.46875 -0.296875 -0.75q-0.296875 -0.296875 -0.765625 -0.296875q-0.703125 0 -1.484375 0.453125q-0.765625 0.4375 -1.25 1.234375q-0.46875 0.796875 -0.78125 2.265625l-0.953125 4.578125l-1.65625 0zm14.743927 3.703125l2.796875 -13.375l1.515625 0l-0.28125 1.34375q0.84375 -0.875 1.515625 -1.21875q0.671875 -0.34375 1.421875 -0.34375q1.375 0 2.28125 1.015625q0.921875 1.0 0.921875 2.875q0 1.515625 -0.5 2.765625q-0.5 1.234375 -1.234375 2.0q-0.71875 0.75 -1.46875 1.109375q-0.75 0.34375 -1.53125 0.34375q-1.75 0 -2.703125 -1.765625l-1.09375 5.25l-1.640625 0zm3.25 -7.65625q0 1.078125 0.15625 1.5q0.234375 0.59375 0.75 0.96875q0.515625 0.359375 1.203125 0.359375q1.421875 0 2.296875 -1.59375q0.875 -1.609375 0.875 -3.28125q0 -1.21875 -0.59375 -1.890625q-0.578125 -0.671875 -1.453125 -0.671875q-0.625 0 -1.171875 0.34375q-0.53125 0.328125 -1.0 0.984375q-0.453125 0.65625 -0.765625 1.609375q-0.296875 0.953125 -0.296875 1.671875zm7.7976074 3.953125l2.796875 -13.359375l1.640625 0l-2.78125 13.359375l-1.65625 0zm11.379211 -3.28125l1.609375 0.15625q-0.34375 1.1875 -1.59375 2.265625q-1.234375 1.078125 -2.96875 1.078125q-1.0625 0 -1.96875 -0.5q-0.890625 -0.5 -1.359375 -1.4375q-0.46875 -0.953125 -0.46875 -2.15625q0 -1.59375 0.734375 -3.078125q0.734375 -1.484375 1.890625 -2.203125q1.171875 -0.734375 2.53125 -0.734375q1.734375 0 2.765625 1.078125q1.03125 1.0625 1.03125 2.921875q0 0.71875 -0.125 1.46875l-7.125 0q-0.046875 0.28125 -0.046875 0.5q0 1.359375 0.625 2.078125q0.625 0.71875 1.53125 0.71875q0.84375 0 1.65625 -0.546875q0.828125 -0.5625 1.28125 -1.609375zm-4.78125 -2.40625l5.421875 0q0.015625 -0.25 0.015625 -0.359375q0 -1.234375 -0.625 -1.890625q-0.625 -0.671875 -1.59375 -0.671875q-1.0625 0 -1.9375 0.734375q-0.859375 0.71875 -1.28125 2.1875zm13.684021 5.6875l2.796875 -13.359375l1.78125 0l-2.796875 13.359375l-1.78125 0zm4.7457886 0l2.015625 -9.671875l1.5 0l-0.359375 1.6875q0.96875 -1.0 1.8125 -1.453125q0.859375 -0.453125 1.734375 -0.453125q1.1875 0 1.84375 0.640625q0.671875 0.625 0.671875 1.703125q0 0.53125 -0.234375 1.6875l-1.234375 5.859375l-1.640625 0l1.28125 -6.125q0.1875 -0.890625 0.1875 -1.328125q0 -0.484375 -0.328125 -0.78125q-0.328125 -0.296875 -0.953125 -0.296875q-1.28125 0 -2.265625 0.90625q-0.984375 0.90625 -1.453125 3.125l-0.9375 4.5l-1.640625 0zm16.891357 -1.40625q-1.40625 1.625 -2.953125 1.625q-1.375 0 -2.296875 -1.015625q-0.90625 -1.015625 -0.90625 -2.953125q0 -1.765625 0.71875 -3.21875q0.734375 -1.46875 1.8125 -2.1875q1.09375 -0.734375 2.1875 -0.734375q1.796875 0 2.71875 1.734375l1.09375 -5.203125l1.640625 0l-2.78125 13.359375l-1.53125 0l0.296875 -1.40625zm-4.515625 -2.640625q0 1.0 0.203125 1.59375q0.203125 0.578125 0.671875 0.96875q0.484375 0.375 1.171875 0.375q1.109375 0 2.03125 -1.15625q1.21875 -1.546875 1.21875 -3.828125q0 -1.140625 -0.609375 -1.78125q-0.59375 -0.65625 -1.515625 -0.65625q-0.59375 0 -1.078125 0.265625q-0.484375 0.265625 -0.96875 0.90625q-0.46875 0.625 -0.796875 1.59375q-0.328125 0.96875 -0.328125 1.71875zm15.469452 0.765625l1.609375 0.15625q-0.34375 1.1875 -1.59375 2.265625q-1.234375 1.078125 -2.96875 1.078125q-1.0625 0 -1.96875 -0.5q-0.890625 -0.5 -1.359375 -1.4375q-0.46875 -0.953125 -0.46875 -2.15625q0 -1.59375 0.734375 -3.078125q0.734375 -1.484375 1.890625 -2.203125q1.171875 -0.734375 2.53125 -0.734375q1.734375 0 2.765625 1.078125q1.03125 1.0625 1.03125 2.921875q0 0.71875 -0.125 1.46875l-7.125 0q-0.046875 0.28125 -0.046875 0.5q0 1.359375 0.625 2.078125q0.625 0.71875 1.53125 0.71875q0.84375 0 1.65625 -0.546875q0.828125 -0.5625 1.28125 -1.609375zm-4.78125 -2.40625l5.421875 0q0.015625 -0.25 0.015625 -0.359375q0 -1.234375 -0.625 -1.890625q-0.625 -0.671875 -1.59375 -0.671875q-1.0625 0 -1.9375 0.734375q-0.859375 0.71875 -1.28125 2.1875zm7.406952 5.6875l4.21875 -4.90625l-2.421875 -4.765625l1.828125 0l0.8125 1.71875q0.453125 0.96875 0.828125 1.84375l2.78125 -3.5625l2.015625 0l-4.0625 4.890625l2.4375 4.78125l-1.8125 0l-0.96875 -1.96875q-0.3125 -0.625 -0.703125 -1.5625l-2.875 3.53125l-2.078125 0z" fill-rule="nonzero"/><path fill="#9fc5e8" d="m39.845146 82.26008l0 0c0 -6.5086823 5.276329 -11.785011 11.785011 -11.785011l171.54808 0c3.1255798 0 6.1231537 1.2416306 8.333267 3.4517517c2.2101135 2.2101135 3.4517517 5.2076797 3.4517517 8.33326l0 47.138634c0 6.5086823 -5.2763367 11.785019 -11.785019 11.785019l-171.54808 0c-6.5086823 0 -11.785011 -5.2763367 -11.785011 -11.785019z" fill-rule="evenodd"/><path fill="#000000" d="m104.36371 96.15565q0 -3.578125 2.0625 -5.78125q2.0625 -2.203125 5.0 -2.203125q2.5 0 4.0625 1.625q1.578125 1.625 1.578125 4.359375q0 1.953125 -0.78125 3.609375q-0.59375 1.25 -1.5 2.15625q-0.90625 0.90625 -1.9375 1.40625q-1.359375 0.65625 -2.890625 0.65625q-1.609375 0 -2.921875 -0.765625q-1.3125 -0.765625 -2.0 -2.140625q-0.671875 -1.375 -0.671875 -2.921875zm1.765625 0.09375q0 1.171875 0.484375 2.15625q0.484375 0.984375 1.453125 1.546875q0.96875 0.546875 2.03125 0.546875q1.03125 0 1.953125 -0.484375q0.9375 -0.484375 1.65625 -1.359375q0.734375 -0.875 1.15625 -2.140625q0.4375 -1.265625 0.4375 -2.5q0 -2.0 -1.125 -3.171875q-1.109375 -1.1875 -2.75 -1.1875q-2.09375 0 -3.703125 1.796875q-1.59375 1.78125 -1.59375 4.796875zm10.855179 9.203125l2.796875 -13.375l1.515625 0l-0.28125 1.34375q0.84375 -0.875 1.515625 -1.21875q0.671875 -0.34375 1.421875 -0.34375q1.375 0 2.28125 1.015625q0.921875 1.0 0.921875 2.875q0 1.515625 -0.5 2.765625q-0.5 1.234375 -1.234375 2.0q-0.71875 0.75 -1.46875 1.109375q-0.75 0.34375 -1.53125 0.34375q-1.75 0 -2.703125 -1.765625l-1.09375 5.25l-1.640625 0zm3.25 -7.65625q0 1.078125 0.15625 1.5q0.234375 0.59375 0.75 0.96875q0.515625 0.359375 1.203125 0.359375q1.421875 0 2.296875 -1.59375q0.875 -1.609375 0.875 -3.28125q0 -1.21875 -0.59375 -1.890625q-0.578125 -0.671875 -1.453125 -0.671875q-0.625 0 -1.171875 0.34375q-0.53125 0.328125 -1.0 0.984375q-0.453125 0.65625 -0.765625 1.609375q-0.296875 0.953125 -0.296875 1.671875zm11.781967 2.609375l-0.265625 1.359375q-0.59375 0.140625 -1.15625 0.140625q-0.984375 0 -1.5625 -0.46875q-0.4375 -0.375 -0.4375 -1.0q0 -0.3125 0.234375 -1.46875l1.171875 -5.625l-1.296875 0l0.265625 -1.265625l1.296875 0l0.5 -2.375l1.890625 -1.140625l-0.734375 3.515625l1.625 0l-0.28125 1.265625l-1.609375 0l-1.125 5.359375q-0.203125 1.015625 -0.203125 1.21875q0 0.28125 0.15625 0.4375q0.171875 0.15625 0.5625 0.15625q0.546875 0 0.96875 -0.109375zm3.6676788 -10.140625l0.40625 -1.875l1.625 0l-0.390625 1.875l-1.640625 0zm-2.390625 11.484375l2.015625 -9.671875l1.65625 0l-2.03125 9.671875l-1.640625 0zm4.488571 -3.671875q0 -2.828125 1.671875 -4.6875q1.375 -1.53125 3.609375 -1.53125q1.75 0 2.8125 1.09375q1.078125 1.09375 1.078125 2.953125q0 1.65625 -0.671875 3.09375q-0.671875 1.4375 -1.921875 2.203125q-1.25 0.765625 -2.625 0.765625q-1.125 0 -2.046875 -0.484375q-0.921875 -0.484375 -1.421875 -1.359375q-0.484375 -0.890625 -0.484375 -2.046875zm1.65625 -0.15625q0 1.359375 0.65625 2.0625q0.65625 0.703125 1.65625 0.703125q0.53125 0 1.046875 -0.203125q0.53125 -0.21875 0.96875 -0.65625q0.453125 -0.4375 0.765625 -1.0q0.3125 -0.5625 0.5 -1.203125q0.28125 -0.90625 0.28125 -1.734375q0 -1.3125 -0.65625 -2.03125q-0.65625 -0.734375 -1.65625 -0.734375q-0.78125 0 -1.421875 0.375q-0.625 0.375 -1.140625 1.09375q-0.515625 0.703125 -0.765625 1.640625q-0.234375 0.9375 -0.234375 1.6875zm8.438217 3.828125l2.015625 -9.671875l1.5 0l-0.359375 1.6875q0.96875 -1.0 1.8125 -1.453125q0.859375 -0.453125 1.734375 -0.453125q1.1875 0 1.84375 0.640625q0.671875 0.625 0.671875 1.703125q0 0.53125 -0.234375 1.6875l-1.234375 5.859375l-1.640625 0l1.28125 -6.125q0.1875 -0.890625 0.1875 -1.328125q0 -0.484375 -0.328125 -0.78125q-0.328125 -0.296875 -0.953125 -0.296875q-1.28125 0 -2.265625 0.90625q-0.984375 0.90625 -1.453125 3.125l-0.9375 4.5l-1.640625 0zm16.891342 -1.203125q-0.859375 0.734375 -1.65625 1.078125q-0.78125 0.34375 -1.6875 0.34375q-1.34375 0 -2.171875 -0.78125q-0.8125 -0.796875 -0.8125 -2.03125q0 -0.796875 0.375 -1.421875q0.375 -0.625 0.984375 -1.0q0.609375 -0.390625 1.484375 -0.546875q0.5625 -0.109375 2.109375 -0.171875q1.5625 -0.0625 2.234375 -0.328125q0.1875 -0.671875 0.1875 -1.125q0 -0.578125 -0.421875 -0.90625q-0.5625 -0.453125 -1.671875 -0.453125q-1.03125 0 -1.703125 0.46875q-0.65625 0.453125 -0.953125 1.296875l-1.671875 -0.140625q0.515625 -1.4375 1.609375 -2.203125q1.109375 -0.765625 2.796875 -0.765625q1.796875 0 2.84375 0.859375q0.796875 0.625 0.796875 1.65625q0 0.765625 -0.21875 1.796875l-0.53125 2.40625q-0.265625 1.140625 -0.265625 1.859375q0 0.453125 0.203125 1.3125l-1.671875 0q-0.125 -0.46875 -0.1875 -1.203125zm0.609375 -3.703125q-0.34375 0.140625 -0.75 0.21875q-0.390625 0.0625 -1.3125 0.15625q-1.4375 0.125 -2.03125 0.328125q-0.59375 0.1875 -0.90625 0.625q-0.296875 0.421875 -0.296875 0.9375q0 0.6875 0.484375 1.140625q0.484375 0.4375 1.359375 0.4375q0.828125 0 1.578125 -0.421875q0.75 -0.4375 1.1875 -1.203125q0.4375 -0.78125 0.6875 -2.21875zm3.1100922 4.90625l2.796875 -13.359375l1.640625 0l-2.78125 13.359375l-1.65625 0z" fill-rule="nonzero"/><path fill="#000000" d="m96.8146 118.48377l0.328125 -1.515625l5.84375 0l-1.140625 5.4375q-1.109375 0.703125 -2.515625 1.140625q-1.40625 0.4375 -2.78125 0.4375q-2.90625 0 -4.34375 -1.765625q-1.21875 -1.484375 -1.21875 -3.8125q0 -2.40625 1.0625 -4.375q1.0625 -1.984375 2.671875 -2.921875q1.625 -0.9375 3.59375 -0.9375q1.421875 0 2.546875 0.515625q1.140625 0.515625 1.734375 1.375q0.609375 0.859375 0.875 2.234375l-1.75 0.203125q-0.28125 -1.375 -1.171875 -2.109375q-0.890625 -0.734375 -2.28125 -0.734375q-1.453125 0 -2.71875 0.796875q-1.25 0.78125 -2.0 2.375q-0.75 1.578125 -0.75 3.609375q0 2.0 0.984375 3.03125q1.0 1.03125 2.75 1.03125q1.734375 0 3.75 -1.140625l0.59375 -2.875l-4.0625 0zm14.589554 1.984375l1.609375 0.15625q-0.34375 1.1875 -1.59375 2.265625q-1.234375 1.078125 -2.96875 1.078125q-1.0625 0 -1.96875 -0.5q-0.890625 -0.5 -1.359375 -1.4375q-0.46875 -0.953125 -0.46875 -2.15625q0 -1.59375 0.734375 -3.078125q0.734375 -1.484375 1.890625 -2.203125q1.171875 -0.734375 2.53125 -0.734375q1.734375 0 2.765625 1.078125q1.03125 1.0625 1.03125 2.921875q0 0.71875 -0.125 1.46875l-7.125 0q-0.046875 0.28125 -0.046875 0.5q0 1.359375 0.625 2.078125q0.625 0.71875 1.53125 0.71875q0.84375 0 1.65625 -0.546875q0.828125 -0.5625 1.28125 -1.609375zm-4.78125 -2.40625l5.421875 0q0.015625 -0.25 0.015625 -0.359375q0 -1.234375 -0.625 -1.890625q-0.625 -0.671875 -1.59375 -0.671875q-1.0625 0 -1.9375 0.734375q-0.859375 0.71875 -1.28125 2.1875zm8.063217 5.6875l2.015625 -9.671875l1.5 0l-0.359375 1.6875q0.96875 -1.0 1.8125 -1.453125q0.859375 -0.453125 1.734375 -0.453125q1.1875 0 1.84375 0.640625q0.671875 0.625 0.671875 1.703125q0 0.53125 -0.234375 1.6875l-1.234375 5.859375l-1.640625 0l1.28125 -6.125q0.1875 -0.890625 0.1875 -1.328125q0 -0.484375 -0.328125 -0.78125q-0.328125 -0.296875 -0.953125 -0.296875q-1.28125 0 -2.265625 0.90625q-0.984375 0.90625 -1.453125 3.125l-0.9375 4.5l-1.640625 0zm17.46946 -3.28125l1.609375 0.15625q-0.34375 1.1875 -1.59375 2.265625q-1.234375 1.078125 -2.96875 1.078125q-1.0625 0 -1.9687424 -0.5q-0.890625 -0.5 -1.359375 -1.4375q-0.46875 -0.953125 -0.46875 -2.15625q0 -1.59375 0.734375 -3.078125q0.734375 -1.484375 1.8906174 -2.203125q1.171875 -0.734375 2.53125 -0.734375q1.734375 0 2.765625 1.078125q1.03125 1.0625 1.03125 2.921875q0 0.71875 -0.125 1.46875l-7.1249924 0q-0.046875 0.28125 -0.046875 0.5q0 1.359375 0.625 2.078125q0.6249924 0.71875 1.5312424 0.71875q0.84375 0 1.65625 -0.546875q0.828125 -0.5625 1.28125 -1.609375zm-4.7812424 -2.40625l5.4218674 0q0.015625 -0.25 0.015625 -0.359375q0 -1.234375 -0.625 -1.890625q-0.625 -0.671875 -1.59375 -0.671875q-1.0625 0 -1.9375 0.734375q-0.8593674 0.71875 -1.2812424 2.1875zm13.684013 5.6875l2.796875 -13.359375l1.78125 0l-2.796875 13.359375l-1.78125 0zm4.745804 0l2.015625 -9.671875l1.5 0l-0.359375 1.6875q0.96875 -1.0 1.8125 -1.453125q0.859375 -0.453125 1.734375 -0.453125q1.1875 0 1.84375 0.640625q0.671875 0.625 0.671875 1.703125q0 0.53125 -0.234375 1.6875l-1.234375 5.859375l-1.640625 0l1.28125 -6.125q0.1875 -0.890625 0.1875 -1.328125q0 -0.484375 -0.328125 -0.78125q-0.328125 -0.296875 -0.953125 -0.296875q-1.28125 0 -2.265625 0.90625q-0.984375 0.90625 -1.453125 3.125l-0.9375 4.5l-1.640625 0zm16.891342 -1.40625q-1.40625 1.625 -2.953125 1.625q-1.375 0 -2.296875 -1.015625q-0.90625 -1.015625 -0.90625 -2.953125q0 -1.765625 0.71875 -3.21875q0.734375 -1.46875 1.8125 -2.1875q1.09375 -0.734375 2.1875 -0.734375q1.796875 0 2.71875 1.734375l1.09375 -5.203125l1.640625 0l-2.78125 13.359375l-1.53125 0l0.296875 -1.40625zm-4.515625 -2.640625q0 1.0 0.203125 1.59375q0.203125 0.578125 0.671875 0.96875q0.484375 0.375 1.171875 0.375q1.109375 0 2.03125 -1.15625q1.21875 -1.546875 1.21875 -3.828125q0 -1.140625 -0.609375 -1.78125q-0.59375 -0.65625 -1.515625 -0.65625q-0.59375 0 -1.078125 0.265625q-0.484375 0.265625 -0.96875 0.90625q-0.46875 0.625 -0.796875 1.59375q-0.328125 0.96875 -0.328125 1.71875zm15.469467 0.765625l1.609375 0.15625q-0.34375 1.1875 -1.59375 2.265625q-1.234375 1.078125 -2.96875 1.078125q-1.0625 0 -1.96875 -0.5q-0.890625 -0.5 -1.359375 -1.4375q-0.46875 -0.953125 -0.46875 -2.15625q0 -1.59375 0.734375 -3.078125q0.734375 -1.484375 1.890625 -2.203125q1.171875 -0.734375 2.53125 -0.734375q1.734375 0 2.765625 1.078125q1.03125 1.0625 1.03125 2.921875q0 0.71875 -0.125 1.46875l-7.125 0q-0.046875 0.28125 -0.046875 0.5q0 1.359375 0.625 2.078125q0.625 0.71875 1.53125 0.71875q0.84375 0 1.65625 -0.546875q0.828125 -0.5625 1.28125 -1.609375zm-4.78125 -2.40625l5.421875 0q0.015625 -0.25 0.015625 -0.359375q0 -1.234375 -0.625 -1.890625q-0.625 -0.671875 -1.59375 -0.671875q-1.0625 0 -1.9375 0.734375q-0.859375 0.71875 -1.28125 2.1875zm7.4069824 5.6875l4.21875 -4.90625l-2.421875 -4.765625l1.828125 0l0.8125 1.71875q0.453125 0.96875 0.828125 1.84375l2.78125 -3.5625l2.015625 0l-4.0625 4.890625l2.4375 4.78125l-1.8125 0l-0.96875 -1.96875q-0.3125 -0.625 -0.703125 -1.5625l-2.875 3.53125l-2.078125 0z" fill-rule="nonzero"/><path fill="#9fc5e8" d="m39.842518 189.64583l0 0c0 -4.2647095 3.4572334 -7.721939 7.721943 -7.721939l472.74512 0c2.0479736 0 4.012085 0.81355286 5.460205 2.2617035c1.4481812 1.4481354 2.2617188 3.4122467 2.2617188 5.4602356l0 30.886826c0 4.2647095 -3.4572144 7.721939 -7.721924 7.721939l-472.74512 0l0 0c-4.2647095 0 -7.721943 -3.4572296 -7.721943 -7.721939z" fill-rule="evenodd"/><path fill="#000000" d="m191.4907 212.00923l0 -13.359375l2.65625 0l3.15625 9.453125q0.4375 1.328125 0.640625 1.984375q0.234375 -0.734375 0.703125 -2.140625l3.203125 -9.296875l2.375 0l0 13.359375l-1.703125 0l0 -11.171875l-3.875 11.171875l-1.59375 0l-3.859375 -11.375l0 11.375l-1.703125 0zm21.697052 -1.1875q-0.921875 0.765625 -1.765625 1.09375q-0.828125 0.3125 -1.796875 0.3125q-1.59375 0 -2.453125 -0.78125q-0.859375 -0.78125 -0.859375 -1.984375q0 -0.71875 0.328125 -1.296875q0.328125 -0.59375 0.84375 -0.9375q0.53125 -0.359375 1.1875 -0.546875q0.46875 -0.125 1.453125 -0.25q1.984375 -0.234375 2.921875 -0.5625q0.015625 -0.34375 0.015625 -0.421875q0 -1.0 -0.46875 -1.421875q-0.625 -0.546875 -1.875 -0.546875q-1.15625 0 -1.703125 0.40625q-0.546875 0.40625 -0.8125 1.421875l-1.609375 -0.21875q0.21875 -1.015625 0.71875 -1.640625q0.5 -0.640625 1.453125 -0.984375q0.953125 -0.34375 2.1875 -0.34375q1.25 0 2.015625 0.296875q0.78125 0.28125 1.140625 0.734375q0.375 0.4375 0.515625 1.109375q0.078125 0.421875 0.078125 1.515625l0 2.1875q0 2.28125 0.109375 2.890625q0.109375 0.59375 0.40625 1.15625l-1.703125 0q-0.265625 -0.515625 -0.328125 -1.1875zm-0.140625 -3.671875q-0.890625 0.375 -2.671875 0.625q-1.015625 0.140625 -1.4375 0.328125q-0.421875 0.1875 -0.65625 0.53125q-0.21875 0.34375 -0.21875 0.78125q0 0.65625 0.5 1.09375q0.5 0.4375 1.453125 0.4375q0.9375 0 1.671875 -0.40625q0.75 -0.421875 1.09375 -1.140625q0.265625 -0.5625 0.265625 -1.640625l0 -0.609375zm3.5475922 1.96875l1.625 -0.25q0.125 0.96875 0.75 1.5q0.625 0.515625 1.75 0.515625q1.125 0 1.671875 -0.453125q0.546875 -0.46875 0.546875 -1.09375q0 -0.546875 -0.484375 -0.875q-0.328125 -0.21875 -1.671875 -0.546875q-1.8125 -0.46875 -2.515625 -0.796875q-0.6875 -0.328125 -1.046875 -0.90625q-0.359375 -0.59375 -0.359375 -1.3125q0 -0.640625 0.296875 -1.1875q0.296875 -0.5625 0.8125 -0.921875q0.375 -0.28125 1.03125 -0.46875q0.671875 -0.203125 1.421875 -0.203125q1.140625 0 2.0 0.328125q0.859375 0.328125 1.265625 0.890625q0.421875 0.5625 0.578125 1.5l-1.609375 0.21875q-0.109375 -0.75 -0.640625 -1.171875q-0.515625 -0.421875 -1.46875 -0.421875q-1.140625 0 -1.625 0.375q-0.46875 0.375 -0.46875 0.875q0 0.3125 0.1875 0.578125q0.203125 0.265625 0.640625 0.4375q0.234375 0.09375 1.4375 0.421875q1.75 0.453125 2.4375 0.75q0.6875 0.296875 1.078125 0.859375q0.390625 0.5625 0.390625 1.40625q0 0.828125 -0.484375 1.546875q-0.46875 0.71875 -1.375 1.125q-0.90625 0.390625 -2.046875 0.390625q-1.875 0 -2.875 -0.78125q-0.984375 -0.78125 -1.25 -2.328125zm9.984375 2.890625l0 -13.359375l1.640625 0l0 7.625l3.890625 -3.9375l2.109375 0l-3.6875 3.59375l4.0625 6.078125l-2.015625 0l-3.203125 -4.953125l-1.15625 1.125l0 3.828125l-1.640625 0zm13.902054 -4.84375q0 -2.6875 1.484375 -3.96875q1.25 -1.078125 3.046875 -1.078125q2.0 0 3.265625 1.3125q1.265625 1.296875 1.265625 3.609375q0 1.859375 -0.5625 2.9375q-0.5625 1.0625 -1.640625 1.65625q-1.0625 0.59375 -2.328125 0.59375q-2.03125 0 -3.28125 -1.296875q-1.25 -1.3125 -1.25 -3.765625zm1.6875 0q0 1.859375 0.796875 2.796875q0.8125 0.921875 2.046875 0.921875q1.21875 0 2.03125 -0.921875q0.8125 -0.9375 0.8125 -2.84375q0 -1.796875 -0.8125 -2.71875q-0.8125 -0.921875 -2.03125 -0.921875q-1.234375 0 -2.046875 0.921875q-0.796875 0.90625 -0.796875 2.765625zm9.281967 4.84375l0 -9.671875l1.46875 0l0 1.46875q0.5625 -1.03125 1.03125 -1.359375q0.484375 -0.328125 1.0625 -0.328125q0.828125 0 1.6875 0.53125l-0.5625 1.515625q-0.609375 -0.359375 -1.203125 -0.359375q-0.546875 0 -0.96875 0.328125q-0.421875 0.328125 -0.609375 0.890625q-0.28125 0.875 -0.28125 1.921875l0 5.0625l-1.625 0zm11.614716 0l0 -13.359375l4.609375 0q1.546875 0 2.375 0.203125q1.140625 0.25 1.953125 0.953125q1.0625 0.890625 1.578125 2.28125q0.53125 1.390625 0.53125 3.171875q0 1.515625 -0.359375 2.703125q-0.359375 1.171875 -0.921875 1.9375q-0.546875 0.765625 -1.203125 1.21875q-0.65625 0.4375 -1.59375 0.671875q-0.9375 0.21875 -2.140625 0.21875l-4.828125 0zm1.765625 -1.578125l2.859375 0q1.3125 0 2.0625 -0.234375q0.75 -0.25 1.203125 -0.703125q0.625 -0.625 0.96875 -1.6875q0.359375 -1.0625 0.359375 -2.578125q0 -2.09375 -0.6875 -3.21875q-0.6875 -1.125 -1.671875 -1.5q-0.703125 -0.28125 -2.28125 -0.28125l-2.8125 0l0 10.203125zm11.488586 1.578125l0 -9.671875l1.46875 0l0 1.46875q0.5625 -1.03125 1.03125 -1.359375q0.484375 -0.328125 1.0625 -0.328125q0.828125 0 1.6875 0.53125l-0.5625 1.515625q-0.609375 -0.359375 -1.203125 -0.359375q-0.546875 0 -0.96875 0.328125q-0.421875 0.328125 -0.609375 0.890625q-0.28125 0.875 -0.28125 1.921875l0 5.0625l-1.625 0zm5.618927 -4.84375q0 -2.6875 1.484375 -3.96875q1.25 -1.078125 3.046875 -1.078125q2.0 0 3.265625 1.3125q1.265625 1.296875 1.265625 3.609375q0 1.859375 -0.5625 2.9375q-0.5625 1.0625 -1.640625 1.65625q-1.0625 0.59375 -2.328125 0.59375q-2.03125 0 -3.28125 -1.296875q-1.25 -1.3125 -1.25 -3.765625zm1.6875 0q0 1.859375 0.796875 2.796875q0.8125 0.921875 2.046875 0.921875q1.21875 0 2.03125 -0.921875q0.8125 -0.9375 0.8125 -2.84375q0 -1.796875 -0.8125 -2.71875q-0.8125 -0.921875 -2.03125 -0.921875q-1.234375 0 -2.046875 0.921875q-0.796875 0.90625 -0.796875 2.765625zm9.297577 8.546875l0 -13.375l1.484375 0l0 1.25q0.53125 -0.734375 1.1875 -1.09375q0.671875 -0.375 1.625 -0.375q1.234375 0 2.171875 0.640625q0.953125 0.625 1.4375 1.796875q0.484375 1.15625 0.484375 2.546875q0 1.484375 -0.53125 2.671875q-0.53125 1.1875 -1.546875 1.828125q-1.015625 0.625 -2.140625 0.625q-0.8125 0 -1.46875 -0.34375q-0.65625 -0.34375 -1.0625 -0.875l0 4.703125l-1.640625 0zm1.484375 -8.484375q0 1.859375 0.75 2.765625q0.765625 0.890625 1.828125 0.890625q1.09375 0 1.875 -0.921875q0.78125 -0.9375 0.78125 -2.875q0 -1.84375 -0.765625 -2.765625q-0.75 -0.921875 -1.8125 -0.921875q-1.046875 0 -1.859375 0.984375q-0.796875 0.96875 -0.796875 2.84375zm15.574646 4.78125l-1.515625 0l0 -13.359375l1.640625 0l0 4.765625q1.046875 -1.296875 2.65625 -1.296875q0.890625 0 1.6875 0.359375q0.796875 0.359375 1.3125 1.015625q0.515625 0.640625 0.796875 1.5625q0.296875 0.921875 0.296875 1.96875q0 2.484375 -1.234375 3.84375q-1.21875 1.359375 -2.953125 1.359375q-1.703125 0 -2.6875 -1.4375l0 1.21875zm-0.015625 -4.90625q0 1.734375 0.484375 2.515625q0.765625 1.265625 2.09375 1.265625q1.078125 0 1.859375 -0.9375q0.78125 -0.9375 0.78125 -2.78125q0 -1.890625 -0.75 -2.796875q-0.75 -0.90625 -1.828125 -0.90625q-1.0625 0 -1.859375 0.9375q-0.78125 0.9375 -0.78125 2.703125zm8.813202 8.625l-0.1875 -1.53125q0.546875 0.140625 0.9375 0.140625q0.546875 0 0.875 -0.1875q0.328125 -0.171875 0.546875 -0.5q0.15625 -0.25 0.5 -1.21875q0.046875 -0.140625 0.140625 -0.40625l-3.671875 -9.6875l1.765625 0l2.015625 5.59375q0.390625 1.078125 0.703125 2.25q0.28125 -1.125 0.671875 -2.203125l2.078125 -5.640625l1.640625 0l-3.6875 9.828125q-0.59375 1.609375 -0.921875 2.203125q-0.4375 0.8125 -1.0 1.1875q-0.5625 0.375 -1.34375 0.375q-0.484375 0 -1.0625 -0.203125zm21.042694 -8.953125l0 -1.578125l5.65625 0l0 4.953125q-1.296875 1.046875 -2.6875 1.578125q-1.375 0.515625 -2.84375 0.515625q-1.96875 0 -3.578125 -0.84375q-1.609375 -0.84375 -2.421875 -2.4375q-0.8125 -1.59375 -0.8125 -3.5625q0 -1.953125 0.8125 -3.640625q0.8125 -1.6875 2.34375 -2.5q1.53125 -0.828125 3.515625 -0.828125q1.453125 0 2.625 0.46875q1.171875 0.46875 1.828125 1.3125q0.671875 0.828125 1.015625 2.171875l-1.59375 0.4375q-0.296875 -1.015625 -0.75 -1.59375q-0.4375 -0.59375 -1.265625 -0.9375q-0.828125 -0.34375 -1.84375 -0.34375q-1.203125 0 -2.09375 0.375q-0.890625 0.359375 -1.4375 0.96875q-0.53125 0.59375 -0.828125 1.3125q-0.515625 1.234375 -0.515625 2.6875q0 1.78125 0.609375 2.984375q0.625 1.203125 1.796875 1.796875q1.171875 0.578125 2.5 0.578125q1.140625 0 2.234375 -0.4375q1.09375 -0.453125 1.65625 -0.953125l0 -2.484375l-3.921875 0zm14.683319 2.125l1.6875 0.203125q-0.40625 1.484375 -1.484375 2.3125q-1.078125 0.8125 -2.765625 0.8125q-2.125 0 -3.375 -1.296875q-1.234375 -1.3125 -1.234375 -3.671875q0 -2.453125 1.25 -3.796875q1.265625 -1.34375 3.265625 -1.34375q1.9375 0 3.15625 1.328125q1.234375 1.3125 1.234375 3.703125q0 0.15625 0 0.4375l-7.21875 0q0.09375 1.59375 0.90625 2.453125q0.8125 0.84375 2.015625 0.84375q0.90625 0 1.546875 -0.46875q0.640625 -0.484375 1.015625 -1.515625zm-5.390625 -2.65625l5.40625 0q-0.109375 -1.21875 -0.625 -1.828125q-0.78125 -0.953125 -2.03125 -0.953125q-1.125 0 -1.90625 0.765625q-0.765625 0.75 -0.84375 2.015625zm9.141327 5.765625l0 -9.671875l1.46875 0l0 1.375q1.0625 -1.59375 3.078125 -1.59375q0.875 0 1.609375 0.3125q0.734375 0.3125 1.09375 0.828125q0.375 0.5 0.515625 1.203125q0.09375 0.453125 0.09375 1.59375l0 5.953125l-1.640625 0l0 -5.890625q0 -1.0 -0.203125 -1.484375q-0.1875 -0.5 -0.671875 -0.796875q-0.484375 -0.296875 -1.140625 -0.296875q-1.046875 0 -1.8125 0.671875q-0.75 0.65625 -0.75 2.515625l0 5.28125l-1.640625 0zm17.000702 -3.109375l1.6875 0.203125q-0.40625 1.484375 -1.484375 2.3125q-1.078125 0.8125 -2.765625 0.8125q-2.125 0 -3.375 -1.296875q-1.234375 -1.3125 -1.234375 -3.671875q0 -2.453125 1.25 -3.796875q1.265625 -1.34375 3.265625 -1.34375q1.9375 0 3.15625 1.328125q1.234375 1.3125 1.234375 3.703125q0 0.15625 0 0.4375l-7.21875 0q0.09375 1.59375 0.90625 2.453125q0.8125 0.84375 2.015625 0.84375q0.90625 0 1.546875 -0.46875q0.640625 -0.484375 1.015625 -1.515625zm-5.390625 -2.65625l5.40625 0q-0.109375 -1.21875 -0.625 -1.828125q-0.78125 -0.953125 -2.03125 -0.953125q-1.125 0 -1.90625 0.765625q-0.765625 0.75 -0.84375 2.015625z" fill-rule="nonzero"/><path fill="#3d85c6" d="m122.1601 168.33333l7.6220474 0l0 -27.149597l15.244095 0l0 27.149597l7.622055 0l-15.244095 15.244095z" fill-rule="evenodd"/><path fill="#9fc5e8" d="m39.842518 436.38336l0 0c0 -4.2647095 3.4572334 -7.7219543 7.721943 -7.7219543l472.74512 0c2.0479736 0 4.012085 0.8135681 5.460205 2.2617188c1.4481812 1.4481506 2.2617188 3.4122314 2.2617188 5.4602356l0 30.88681c0 4.2647095 -3.4572144 7.7219543 -7.721924 7.7219543l-472.74512 0l0 0c-4.2647095 0 -7.721943 -3.4572449 -7.721943 -7.7219543z" fill-rule="evenodd"/><path fill="#000000" d="m136.00049 458.74677l0 -13.359375l2.65625 0l3.15625 9.453125q0.4375 1.328125 0.640625 1.984375q0.234375 -0.734375 0.703125 -2.140625l3.203125 -9.296875l2.375 0l0 13.359375l-1.703125 0l0 -11.171875l-3.875 11.171875l-1.59375 0l-3.859375 -11.375l0 11.375l-1.703125 0zm21.697052 -1.1875q-0.921875 0.765625 -1.765625 1.09375q-0.828125 0.3125 -1.796875 0.3125q-1.59375 0 -2.453125 -0.78125q-0.859375 -0.78125 -0.859375 -1.984375q0 -0.71875 0.328125 -1.296875q0.328125 -0.59375 0.84375 -0.9375q0.53125 -0.359375 1.1875 -0.546875q0.46875 -0.125 1.453125 -0.25q1.984375 -0.234375 2.921875 -0.5625q0.015625 -0.34375 0.015625 -0.421875q0 -1.0 -0.46875 -1.421875q-0.625 -0.546875 -1.875 -0.546875q-1.15625 0 -1.703125 0.40625q-0.546875 0.40625 -0.8125 1.421875l-1.609375 -0.21875q0.21875 -1.015625 0.71875 -1.640625q0.5 -0.640625 1.453125 -0.984375q0.953125 -0.34375 2.1875 -0.34375q1.25 0 2.015625 0.296875q0.78125 0.28125 1.140625 0.734375q0.375 0.4375 0.515625 1.109375q0.078125 0.421875 0.078125 1.515625l0 2.1875q0 2.28125 0.109375 2.890625q0.109375 0.59375 0.40625 1.15625l-1.703125 0q-0.265625 -0.515625 -0.328125 -1.1875zm-0.140625 -3.671875q-0.890625 0.375 -2.671875 0.625q-1.015625 0.140625 -1.4375 0.328125q-0.421875 0.1875 -0.65625 0.53125q-0.21875 0.34375 -0.21875 0.78125q0 0.65625 0.5 1.09375q0.5 0.4375 1.453125 0.4375q0.9375 0 1.671875 -0.40625q0.75 -0.421875 1.09375 -1.140625q0.265625 -0.5625 0.265625 -1.640625l0 -0.609375zm3.5475922 1.96875l1.625 -0.25q0.125 0.96875 0.75 1.5q0.625 0.515625 1.75 0.515625q1.125 0 1.671875 -0.453125q0.546875 -0.46875 0.546875 -1.09375q0 -0.546875 -0.484375 -0.875q-0.328125 -0.21875 -1.671875 -0.546875q-1.8125 -0.46875 -2.515625 -0.796875q-0.6875 -0.328125 -1.046875 -0.90625q-0.359375 -0.59375 -0.359375 -1.3125q0 -0.640625 0.296875 -1.1875q0.296875 -0.5625 0.8125 -0.921875q0.375 -0.28125 1.03125 -0.46875q0.671875 -0.203125 1.421875 -0.203125q1.140625 0 2.0 0.328125q0.859375 0.328125 1.265625 0.890625q0.421875 0.5625 0.578125 1.5l-1.609375 0.21875q-0.109375 -0.75 -0.640625 -1.171875q-0.515625 -0.421875 -1.46875 -0.421875q-1.140625 0 -1.625 0.375q-0.46875 0.375 -0.46875 0.875q0 0.3125 0.1875 0.578125q0.203125 0.265625 0.640625 0.4375q0.234375 0.09375 1.4375 0.421875q1.75 0.453125 2.4375 0.75q0.6875 0.296875 1.078125 0.859375q0.390625 0.5625 0.390625 1.40625q0 0.828125 -0.484375 1.546875q-0.46875 0.71875 -1.375 1.125q-0.90625 0.390625 -2.046875 0.390625q-1.875 0 -2.875 -0.78125q-0.984375 -0.78125 -1.25 -2.328125zm9.984375 2.890625l0 -13.359375l1.640625 0l0 7.625l3.890625 -3.9375l2.109375 0l-3.6875 3.59375l4.0625 6.078125l-2.015625 0l-3.203125 -4.953125l-1.15625 1.125l0 3.828125l-1.640625 0zm13.902054 -4.84375q0 -2.6875 1.484375 -3.96875q1.25 -1.078125 3.046875 -1.078125q2.0 0 3.265625 1.3125q1.265625 1.296875 1.265625 3.609375q0 1.859375 -0.5625 2.9375q-0.5625 1.0625 -1.640625 1.65625q-1.0625 0.59375 -2.328125 0.59375q-2.03125 0 -3.28125 -1.296875q-1.25 -1.3125 -1.25 -3.765625zm1.6875 0q0 1.859375 0.796875 2.796875q0.8125 0.921875 2.046875 0.921875q1.21875 0 2.03125 -0.921875q0.8125 -0.9375 0.8125 -2.84375q0 -1.796875 -0.8125 -2.71875q-0.8125 -0.921875 -2.03125 -0.921875q-1.234375 0 -2.046875 0.921875q-0.796875 0.90625 -0.796875 2.765625zm9.281967 4.84375l0 -9.671875l1.46875 0l0 1.46875q0.5625 -1.03125 1.03125 -1.359375q0.484375 -0.328125 1.0625 -0.328125q0.828125 0 1.6875 0.53125l-0.5625 1.515625q-0.609375 -0.359375 -1.203125 -0.359375q-0.546875 0 -0.96875 0.328125q-0.421875 0.328125 -0.609375 0.890625q-0.28125 0.875 -0.28125 1.921875l0 5.0625l-1.625 0zm11.614731 0l0 -13.359375l4.609375 0q1.546875 0 2.375 0.203125q1.140625 0.25 1.953125 0.953125q1.0625 0.890625 1.578125 2.28125q0.53125 1.390625 0.53125 3.171875q0 1.515625 -0.359375 2.703125q-0.359375 1.171875 -0.921875 1.9375q-0.546875 0.765625 -1.203125 1.21875q-0.65625 0.4375 -1.59375 0.671875q-0.9375 0.21875 -2.140625 0.21875l-4.828125 0zm1.765625 -1.578125l2.859375 0q1.3125 0 2.0625 -0.234375q0.75 -0.25 1.203125 -0.703125q0.625 -0.625 0.96875 -1.6875q0.359375 -1.0625 0.359375 -2.578125q0 -2.09375 -0.6875 -3.21875q-0.6875 -1.125 -1.671875 -1.5q-0.703125 -0.28125 -2.28125 -0.28125l-2.8125 0l0 10.203125zm11.488571 1.578125l0 -9.671875l1.46875 0l0 1.46875q0.5625 -1.03125 1.03125 -1.359375q0.484375 -0.328125 1.0625 -0.328125q0.828125 0 1.6875 0.53125l-0.5625 1.515625q-0.609375 -0.359375 -1.203125 -0.359375q-0.546875 0 -0.96875 0.328125q-0.421875 0.328125 -0.609375 0.890625q-0.28125 0.875 -0.28125 1.921875l0 5.0625l-1.625 0zm5.618927 -4.84375q0 -2.6875 1.484375 -3.96875q1.25 -1.078125 3.046875 -1.078125q2.0 0 3.265625 1.3125q1.265625 1.296875 1.265625 3.609375q0 1.859375 -0.5625 2.9375q-0.5625 1.0625 -1.640625 1.65625q-1.0625 0.59375 -2.328125 0.59375q-2.03125 0 -3.28125 -1.296875q-1.25 -1.3125 -1.25 -3.765625zm1.6875 0q0 1.859375 0.796875 2.796875q0.8125 0.921875 2.046875 0.921875q1.21875 0 2.03125 -0.921875q0.8125 -0.9375 0.8125 -2.84375q0 -1.796875 -0.8125 -2.71875q-0.8125 -0.921875 -2.03125 -0.921875q-1.234375 0 -2.046875 0.921875q-0.796875 0.90625 -0.796875 2.765625zm9.297592 8.546875l0 -13.375l1.484375 0l0 1.25q0.53125 -0.734375 1.1875 -1.09375q0.671875 -0.375 1.625 -0.375q1.234375 0 2.171875 0.640625q0.953125 0.625 1.4375 1.796875q0.484375 1.15625 0.484375 2.546875q0 1.484375 -0.53125 2.671875q-0.53125 1.1875 -1.546875 1.828125q-1.015625 0.625 -2.140625 0.625q-0.8125 0 -1.46875 -0.34375q-0.65625 -0.34375 -1.0625 -0.875l0 4.703125l-1.640625 0zm1.484375 -8.484375q0 1.859375 0.75 2.765625q0.765625 0.890625 1.828125 0.890625q1.09375 0 1.875 -0.921875q0.78125 -0.9375 0.78125 -2.875q0 -1.84375 -0.765625 -2.765625q-0.75 -0.921875 -1.8125 -0.921875q-1.046875 0 -1.859375 0.984375q-0.796875 0.96875 -0.796875 2.84375zm15.574646 4.78125l-1.515625 0l0 -13.359375l1.640625 0l0 4.765625q1.046875 -1.296875 2.65625 -1.296875q0.890625 0 1.6875 0.359375q0.796875 0.359375 1.3125 1.015625q0.515625 0.640625 0.796875 1.5625q0.296875 0.921875 0.296875 1.96875q0 2.484375 -1.234375 3.84375q-1.21875 1.359375 -2.953125 1.359375q-1.703125 0 -2.6875 -1.4375l0 1.21875zm-0.015625 -4.90625q0 1.734375 0.484375 2.515625q0.765625 1.265625 2.09375 1.265625q1.078125 0 1.859375 -0.9375q0.78125 -0.9375 0.78125 -2.78125q0 -1.890625 -0.75 -2.796875q-0.75 -0.90625 -1.828125 -0.90625q-1.0625 0 -1.859375 0.9375q-0.78125 0.9375 -0.78125 2.703125zm8.813202 8.625l-0.1875 -1.53125q0.546875 0.140625 0.9375 0.140625q0.546875 0 0.875 -0.1875q0.328125 -0.171875 0.546875 -0.5q0.15625 -0.25 0.5 -1.21875q0.046875 -0.140625 0.140625 -0.40625l-3.671875 -9.6875l1.765625 0l2.015625 5.59375q0.390625 1.078125 0.703125 2.25q0.28125 -1.125 0.671875 -2.203125l2.078125 -5.640625l1.640625 0l-3.6875 9.828125q-0.59375 1.609375 -0.921875 2.203125q-0.4375 0.8125 -1.0 1.1875q-0.5625 0.375 -1.34375 0.375q-0.484375 0 -1.0625 -0.203125zm14.198944 -8.015625l1.65625 -0.140625q0.125 1.0 0.546875 1.640625q0.4375 0.640625 1.34375 1.046875q0.921875 0.390625 2.0625 0.390625q1.0 0 1.78125 -0.296875q0.78125 -0.296875 1.15625 -0.8125q0.375 -0.53125 0.375 -1.15625q0 -0.625 -0.375 -1.09375q-0.359375 -0.46875 -1.1875 -0.796875q-0.546875 -0.203125 -2.390625 -0.640625q-1.828125 -0.453125 -2.5625 -0.84375q-0.96875 -0.5 -1.4375 -1.234375q-0.46875 -0.75 -0.46875 -1.671875q0 -1.0 0.578125 -1.875q0.578125 -0.890625 1.671875 -1.34375q1.109375 -0.453125 2.453125 -0.453125q1.484375 0 2.609375 0.484375q1.140625 0.46875 1.75 1.40625q0.609375 0.921875 0.65625 2.09375l-1.6875 0.125q-0.140625 -1.265625 -0.9375 -1.90625q-0.78125 -0.65625 -2.3125 -0.65625q-1.609375 0 -2.34375 0.59375q-0.734375 0.59375 -0.734375 1.421875q0 0.71875 0.53125 1.171875q0.5 0.46875 2.65625 0.96875q2.15625 0.484375 2.953125 0.84375q1.171875 0.53125 1.71875 1.359375q0.5625 0.828125 0.5625 1.90625q0 1.0625 -0.609375 2.015625q-0.609375 0.9375 -1.75 1.46875q-1.140625 0.515625 -2.578125 0.515625q-1.8125 0 -3.046875 -0.53125q-1.21875 -0.53125 -1.921875 -1.59375q-0.6875 -1.0625 -0.71875 -2.40625zm19.146698 3.109375q-0.921875 0.765625 -1.765625 1.09375q-0.828125 0.3125 -1.796875 0.3125q-1.59375 0 -2.453125 -0.78125q-0.859375 -0.78125 -0.859375 -1.984375q0 -0.71875 0.328125 -1.296875q0.328125 -0.59375 0.84375 -0.9375q0.53125 -0.359375 1.1875 -0.546875q0.46875 -0.125 1.453125 -0.25q1.984375 -0.234375 2.921875 -0.5625q0.015625 -0.34375 0.015625 -0.421875q0 -1.0 -0.46875 -1.421875q-0.625 -0.546875 -1.875 -0.546875q-1.15625 0 -1.703125 0.40625q-0.546875 0.40625 -0.8125 1.421875l-1.609375 -0.21875q0.21875 -1.015625 0.71875 -1.640625q0.5 -0.640625 1.453125 -0.984375q0.953125 -0.34375 2.1875 -0.34375q1.25 0 2.015625 0.296875q0.78125 0.28125 1.140625 0.734375q0.375 0.4375 0.515625 1.109375q0.07809448 0.421875 0.07809448 1.515625l0 2.1875q0 2.28125 0.109375 2.890625q0.109375 0.59375 0.40625 1.15625l-1.7030945 0q-0.265625 -0.515625 -0.328125 -1.1875zm-0.140625 -3.671875q-0.890625 0.375 -2.671875 0.625q-1.015625 0.140625 -1.4375 0.328125q-0.421875 0.1875 -0.65625 0.53125q-0.21875 0.34375 -0.21875 0.78125q0 0.65625 0.5 1.09375q0.5 0.4375 1.453125 0.4375q0.9375 0 1.671875 -0.40625q0.75 -0.421875 1.09375 -1.140625q0.265625 -0.5625 0.265625 -1.640625l0 -0.609375zm4.203827 4.859375l0 -9.671875l1.46875 0l0 1.359375q0.453125 -0.71875 1.203125 -1.140625q0.765625 -0.4375 1.71875 -0.4375q1.078125 0 1.765625 0.453125q0.6875 0.4375 0.96875 1.234375q1.15625 -1.6875 2.984375 -1.6875q1.453125 0 2.21875 0.796875q0.78125 0.796875 0.78125 2.453125l0 6.640625l-1.640625 0l0 -6.09375q0 -0.984375 -0.15625 -1.40625q-0.15625 -0.4375 -0.578125 -0.703125q-0.421875 -0.265625 -0.984375 -0.265625q-1.015625 0 -1.6875 0.6875q-0.671875 0.671875 -0.671875 2.15625l0 5.625l-1.640625 0l0 -6.28125q0 -1.09375 -0.40625 -1.640625q-0.40625 -0.546875 -1.3125 -0.546875q-0.6875 0 -1.28125 0.359375q-0.59375 0.359375 -0.859375 1.0625q-0.25 0.703125 -0.25 2.03125l0 5.015625l-1.640625 0zm15.540802 3.703125l0 -13.375l1.484375 0l0 1.25q0.53125 -0.734375 1.1875 -1.09375q0.671875 -0.375 1.625 -0.375q1.234375 0 2.171875 0.640625q0.953125 0.625 1.4375 1.796875q0.484375 1.15625 0.484375 2.546875q0 1.484375 -0.53125 2.671875q-0.53125 1.1875 -1.546875 1.828125q-1.015625 0.625 -2.140625 0.625q-0.8125 0 -1.46875 -0.34375q-0.65625 -0.34375 -1.0625 -0.875l0 4.703125l-1.640625 0zm1.484375 -8.484375q0 1.859375 0.75 2.765625q0.765625 0.890625 1.828125 0.890625q1.09375 0 1.875 -0.921875q0.78125 -0.9375 0.78125 -2.875q0 -1.84375 -0.765625 -2.765625q-0.75 -0.921875 -1.8125 -0.921875q-1.046875 0 -1.859375 0.984375q-0.796875 0.96875 -0.796875 2.84375zm8.844452 4.78125l0 -13.359375l1.640625 0l0 13.359375l-1.640625 0zm10.816711 -3.109375l1.6875 0.203125q-0.40625 1.484375 -1.484375 2.3125q-1.078125 0.8125 -2.765625 0.8125q-2.125 0 -3.375 -1.296875q-1.234375 -1.3125 -1.234375 -3.671875q0 -2.453125 1.25 -3.796875q1.265625 -1.34375 3.265625 -1.34375q1.9375 0 3.15625 1.328125q1.234375 1.3125 1.234375 3.703125q0 0.15625 0 0.4375l-7.21875 0q0.09375 1.59375 0.90625 2.453125q0.8125 0.84375 2.015625 0.84375q0.90625 0 1.546875 -0.46875q0.640625 -0.484375 1.015625 -1.515625zm-5.390625 -2.65625l5.40625 0q-0.109375 -1.21875 -0.625 -1.828125q-0.78125 -0.953125 -2.03125 -0.953125q-1.125 0 -1.90625 0.765625q-0.765625 0.75 -0.84375 2.015625zm12.029053 5.765625l5.125 -13.359375l1.90625 0l5.46875 13.359375l-2.015625 0l-1.546875 -4.046875l-5.59375 0l-1.46875 4.046875l-1.875 0zm3.859375 -5.484375l4.53125 0l-1.40625 -3.703125q-0.625 -1.6875 -0.9375 -2.765625q-0.265625 1.28125 -0.71875 2.546875l-1.46875 3.921875zm9.8498535 5.484375l0 -9.671875l1.46875 0l0 1.375q1.0625 -1.59375 3.078125 -1.59375q0.875 0 1.609375 0.3125q0.734375 0.3125 1.09375 0.828125q0.375 0.5 0.515625 1.203125q0.09375 0.453125 0.09375 1.59375l0 5.953125l-1.640625 0l0 -5.890625q0 -1.0 -0.203125 -1.484375q-0.1875 -0.5 -0.671875 -0.796875q-0.484375 -0.296875 -1.140625 -0.296875q-1.046875 0 -1.8125 0.671875q-0.75 0.65625 -0.75 2.515625l0 5.28125l-1.640625 0zm10.375702 0l0 -9.671875l1.46875 0l0 1.375q1.0625 -1.59375 3.078125 -1.59375q0.875 0 1.609375 0.3125q0.734375 0.3125 1.09375 0.828125q0.375 0.5 0.515625 1.203125q0.09375 0.453125 0.09375 1.59375l0 5.953125l-1.640625 0l0 -5.890625q0 -1.0 -0.203125 -1.484375q-0.1875 -0.5 -0.671875 -0.796875q-0.484375 -0.296875 -1.140625 -0.296875q-1.046875 0 -1.8125 0.671875q-0.75 0.65625 -0.75 2.515625l0 5.28125l-1.640625 0zm9.766327 -4.84375q0 -2.6875 1.484375 -3.96875q1.25 -1.078125 3.046875 -1.078125q2.0 0 3.265625 1.3125q1.265625 1.296875 1.265625 3.609375q0 1.859375 -0.5625 2.9375q-0.5625 1.0625 -1.640625 1.65625q-1.0625 0.59375 -2.328125 0.59375q-2.03125 0 -3.28125 -1.296875q-1.25 -1.3125 -1.25 -3.765625zm1.6875 0q0 1.859375 0.796875 2.796875q0.8125 0.921875 2.046875 0.921875q1.21875 0 2.03125 -0.921875q0.8125 -0.9375 0.8125 -2.84375q0 -1.796875 -0.8125 -2.71875q-0.8125 -0.921875 -2.03125 -0.921875q-1.234375 0 -2.046875 0.921875q-0.796875 0.90625 -0.796875 2.765625zm12.875732 3.375l0.234375 1.453125q-0.6875 0.140625 -1.234375 0.140625q-0.890625 0 -1.390625 -0.28125q-0.484375 -0.28125 -0.6875 -0.734375q-0.203125 -0.46875 -0.203125 -1.9375l0 -5.578125l-1.203125 0l0 -1.265625l1.203125 0l0 -2.390625l1.625 -0.984375l0 3.375l1.65625 0l0 1.265625l-1.65625 0l0 5.671875q0 0.6875 0.078125 0.890625q0.09375 0.203125 0.28125 0.328125q0.203125 0.109375 0.578125 0.109375q0.265625 0 0.71875 -0.0625zm7.9176636 0.28125q-0.921875 0.765625 -1.765625 1.09375q-0.828125 0.3125 -1.796875 0.3125q-1.59375 0 -2.453125 -0.78125q-0.859375 -0.78125 -0.859375 -1.984375q0 -0.71875 0.328125 -1.296875q0.328125 -0.59375 0.84375 -0.9375q0.53125 -0.359375 1.1875 -0.546875q0.46875 -0.125 1.453125 -0.25q1.984375 -0.234375 2.921875 -0.5625q0.015625 -0.34375 0.015625 -0.421875q0 -1.0 -0.46875 -1.421875q-0.625 -0.546875 -1.875 -0.546875q-1.15625 0 -1.703125 0.40625q-0.546875 0.40625 -0.8125 1.421875l-1.609375 -0.21875q0.21875 -1.015625 0.71875 -1.640625q0.5 -0.640625 1.453125 -0.984375q0.953125 -0.34375 2.1875 -0.34375q1.25 0 2.015625 0.296875q0.78125 0.28125 1.140625 0.734375q0.375 0.4375 0.515625 1.109375q0.078125 0.421875 0.078125 1.515625l0 2.1875q0 2.28125 0.109375 2.890625q0.109375 0.59375 0.40625 1.15625l-1.703125 0q-0.265625 -0.515625 -0.328125 -1.1875zm-0.140625 -3.671875q-0.890625 0.375 -2.671875 0.625q-1.015625 0.140625 -1.4375 0.328125q-0.421875 0.1875 -0.65625 0.53125q-0.21875 0.34375 -0.21875 0.78125q0 0.65625 0.5 1.09375q0.5 0.4375 1.453125 0.4375q0.9375 0 1.671875 -0.40625q0.75 -0.421875 1.09375 -1.140625q0.265625 -0.5625 0.265625 -1.640625l0 -0.609375zm7.7819824 3.390625l0.234375 1.453125q-0.6875 0.140625 -1.234375 0.140625q-0.890625 0 -1.390625 -0.28125q-0.484375 -0.28125 -0.6875 -0.734375q-0.203125 -0.46875 -0.203125 -1.9375l0 -5.578125l-1.203125 0l0 -1.265625l1.203125 0l0 -2.390625l1.625 -0.984375l0 3.375l1.65625 0l0 1.265625l-1.65625 0l0 5.671875q0 0.6875 0.078125 0.890625q0.09375 0.203125 0.28125 0.328125q0.203125 0.109375 0.578125 0.109375q0.265625 0 0.71875 -0.0625zm1.6051636 -10.0l0 -1.890625l1.640625 0l0 1.890625l-1.640625 0zm0 11.46875l0 -9.671875l1.640625 0l0 9.671875l-1.640625 0zm3.5354614 -4.84375q0 -2.6875 1.484375 -3.96875q1.25 -1.078125 3.046875 -1.078125q2.0 0 3.265625 1.3125q1.265625 1.296875 1.265625 3.609375q0 1.859375 -0.5625 2.9375q-0.5625 1.0625 -1.640625 1.65625q-1.0625 0.59375 -2.328125 0.59375q-2.03125 0 -3.28125 -1.296875q-1.25 -1.3125 -1.25 -3.765625zm1.6875 0q0 1.859375 0.796875 2.796875q0.8125 0.921875 2.046875 0.921875q1.21875 0 2.03125 -0.921875q0.8125 -0.9375 0.8125 -2.84375q0 -1.796875 -0.8125 -2.71875q-0.8125 -0.921875 -2.03125 -0.921875q-1.234375 0 -2.046875 0.921875q-0.796875 0.90625 -0.796875 2.765625zm9.297607 4.84375l0 -9.671875l1.46875 0l0 1.375q1.0625 -1.59375 3.078125 -1.59375q0.875 0 1.609375 0.3125q0.734375 0.3125 1.09375 0.828125q0.375 0.5 0.515625 1.203125q0.09375 0.453125 0.09375 1.59375l0 5.953125l-1.640625 0l0 -5.890625q0 -1.0 -0.203125 -1.484375q-0.1875 -0.5 -0.671875 -0.796875q-0.484375 -0.296875 -1.140625 -0.296875q-1.046875 0 -1.8125 0.671875q-0.75 0.65625 -0.75 2.515625l0 5.28125l-1.640625 0z" fill-rule="nonzero"/><path fill="#3d85c6" d="m268.6929 417.1601l7.6220703 0l0 -27.149597l15.24408 0l0 27.149597l7.62204 0l-15.24408 15.24411z" fill-rule="evenodd"/></g></svg>